# COMMON_MC_OBJ_START
# version: 1
# exporter: jmc2obj
# world_name: New World (2)
# world_path: C:\Users\Tran Bao Long\AppData\Roaming\.minecraft\saves\New World (2)
# export_bounds_min: (1, 30, -31)
# export_bounds_max: (48, 69, 16)
# export_offset: (-25.000000, -30.000000, 7.000000)
# block_scale: 1.000000
# block_origin_offset: (-0.5, -0.5, -0.5)
# z_up: false
# texture_type: INDIVIDUAL_TILES
# has_split_blocks: false
# COMMON_MC_OBJ_END
mtllib minecraft.mtl

vt 0.000000000 0.000000000
vt 15.000000000 0.000000000
vt 15.000000000 1.000000000
vt 0.000000000 1.000000000
vt 16.000000000 0.000000000
vt 16.000000000 1.000000000
vt 0.000000000 -15.000000000
vt 15.000000000 -15.000000000
vt 0.000000000 -14.000000000
vt 16.000000000 -14.000000000
vt 1.000000000 -15.000000000
vt 1.000000000 1.000000000
vt 1.000000000 -14.000000000
vt 1.000000000 0.000000000
vt 15.000000000 -14.000000000
vt 0.000000000 -11.000000000
vt 15.000000000 -11.000000000
vt 8.000000000 0.000000000
vt 8.000000000 1.000000000
vt 6.000000000 0.000000000
vt 6.000000000 1.000000000
vt 0.000000000 -2.000000000
vt 15.000000000 -2.000000000
vt 16.000000000 -15.000000000
vt 0.500000000 -0.207100004
vt 1.207100034 0.500000000
vt 0.500000000 1.207100034
vt -0.207100004 0.500000000
vt 1.000000000 0.035000026
vt 0.000000000 0.155000031
vt 0.000000000 0.395000011
vt 1.000000000 0.155000031
vt 0.000000000 0.035000026
vt 7.000000000 0.000000000
vt 7.000000000 1.000000000
vt 0.000000000 -1.000000000
vt 1.000000000 -1.000000000
vt -1.000000000 0.000000000
vt -1.000000000 1.000000000
vt -6.000000000 0.000000000
vt -6.000000000 1.000000000
vt 3.000000000 0.000000000
vt 3.000000000 1.000000000
vt 2.000000000 0.000000000
vt 2.000000000 1.000000000
vt 0.000000000 0.187500000
vt 5.000000000 0.187500000
vt 5.000000000 1.000000000
vt 0.125000000 0.000000000
vt 0.250000000 0.000000000
vt 0.250000000 0.187500000
vt 0.125000000 0.187500000
vt 0.750000000 0.000000000
vt 0.875000000 0.000000000
vt 0.875000000 0.187500000
vt 0.750000000 0.187500000
vt 0.875000000 1.000000000
vt 0.125000000 1.000000000
vt 1.250000000 0.000000000
vt 1.250000000 0.187500000
vt 1.000000000 0.187500000
vt -4.000000000 0.000000000
vt -4.000000000 1.000000000
vt -2.000000000 0.000000000
vt -2.000000000 1.000000000
vt -0.250000000 0.000000000
vt -0.250000000 0.187500000
vt -4.000000000 0.187500000
vt -0.125000000 0.000000000
vt -0.125000000 0.187500000
vt 1.125000000 0.000000000
vt 1.125000000 0.187500000
vt 0.000000000 -4.000000000
vt 7.000000000 -4.000000000
vt 5.000000000 0.000000000
vt 3.000000000 -1.000000000
vt 5.000000000 -4.000000000
vt 1.000000000 0.634999990
vt 0.000000000 0.634999990
vt 0.000000000 0.275000036
vt 1.000000000 0.275000036
vt 1.000000000 0.514999986
vt 1.000000000 0.875000000
vt 1.875000000 0.187500000
vt 1.875000000 1.000000000
vt -0.125000000 1.000000000
vt 1.000000000 0.395000011
vt -3.000000000 0.000000000
vt -3.000000000 1.000000000
vt 0.000000000 0.875000000
vt 1.000000000 2.000000000
vt 0.000000000 2.000000000
vt -4.000000000 -4.000000000
vt 1.000000000 -4.000000000
vt 5.000000000 0.875000000
vt 1.000000000 0.754999995
vt 0.000000000 0.754999995
vt 0.125000000 -4.000000000
vt 0.875000000 -4.000000000
vt 1.125000000 -4.000000000
vt 1.125000000 1.000000000
vt 0.125000000 0.875000000
vt 0.875000000 0.875000000
vt 0.125000000 -0.125000000
vt 0.875000000 -0.125000000
vt 0.875000000 0.125000000
vt 0.125000000 0.125000000
vt 0.000000000 -8.000000000
vt 6.000000000 -8.000000000
vt 3.000000000 -4.000000000
vt 4.000000000 0.000000000
vt 4.000000000 1.000000000
vt 3.000000000 -2.000000000
vt 16.000000000 -2.000000000
vt 0.000000000 0.514999986
vt 0.250000000 0.125000000
vt 0.000000000 0.125000000
vt 0.125000000 0.250000000
vt 0.000000000 0.250000000
vt 1.000000000 0.125000000
vt 0.750000000 0.125000000
vt 1.000000000 0.250000000
vt 0.875000000 0.250000000
vt 0.250000000 0.875000000
vt 0.250000000 1.000000000
vt 0.000000000 0.750000000
vt 0.125000000 0.750000000
vt 0.750000000 0.875000000
vt 0.750000000 1.000000000
vt 0.875000000 0.750000000
vt 1.000000000 0.750000000
vt 9.000000000 0.000000000
vt 9.000000000 1.000000000
v -24.500 9.500 23.500
v -9.500 9.500 23.500
v -9.500 9.500 22.500
v -24.500 9.500 22.500
v 6.500 9.500 23.500
v 6.500 9.500 22.500
v -9.500 9.500 6.500
v -24.500 9.500 6.500
v -9.500 9.500 -9.500
v 6.500 9.500 -9.500
v 6.500 9.500 -24.500
v -9.500 9.500 -24.500
v 22.500 9.500 6.500
v 23.500 9.500 6.500
v 23.500 9.500 -9.500
v 22.500 9.500 -9.500
v 23.500 9.500 -24.500
v 22.500 9.500 -24.500
v 22.500 9.500 23.500
v 23.500 9.500 23.500
v 23.500 9.500 22.500
v 22.500 9.500 22.500
v -24.500 9.500 -9.500
v -24.500 9.500 -24.500
v -16.500 8.500 3.500
v -16.500 8.500 2.500
v -16.500 9.500 2.500
v -16.500 9.500 3.500
v -15.500 8.500 2.500
v -15.500 9.500 2.500
v -15.500 8.500 3.500
v -24.500 9.500 2.500
v -9.500 9.500 2.500
v -24.500 9.500 3.500
v -15.500 9.500 3.500
v -9.500 9.500 3.500
v 6.500 9.500 6.500
v 11.500 9.535 23.500
v 12.500 9.655 23.500
v 12.500 9.655 22.500
v 11.500 9.655 22.500
v 13.500 9.775 23.500
v 13.500 9.895 22.500
v 14.500 9.895 23.500
v 14.500 10.015 22.500
v 15.500 9.895 23.500
v 15.500 10.015 22.500
v 16.500 9.775 23.500
v 16.500 9.895 22.500
v 17.500 9.655 23.500
v 17.500 9.775 22.500
v 18.500 9.535 23.500
v 18.500 9.655 22.500
v 11.501 9.500 22.500
v 11.501 9.500 23.500
v 11.501 9.535 23.500
v 11.501 9.655 22.500
v 13.500 9.500 22.501
v 12.500 9.500 22.501
v 12.500 9.655 22.501
v 13.500 9.895 22.501
v 18.499 9.500 23.500
v 18.499 9.500 22.500
v 18.499 9.655 22.500
v 18.499 9.535 23.500
v 12.500 10.500 6.500
v 19.500 10.500 6.500
v 19.500 10.500 5.500
v 12.500 10.500 5.500
v 15.500 14.500 6.500
v 16.500 14.500 6.500
v 16.500 14.500 4.500
v 15.500 14.500 4.500
v 12.500 9.500 5.500
v 12.500 9.500 6.500
v 16.500 13.500 6.500
v 15.500 13.500 6.500
v 15.500 13.500 4.500
v 16.500 13.500 4.500
v 19.500 9.500 6.500
v 19.500 9.500 5.500
v 6.500 9.500 5.500
v 22.500 9.500 5.500
v 14.477 12.500 6.523
v 13.523 12.500 7.477
v 13.523 13.500 7.477
v 14.477 13.500 6.523
v 13.523 12.500 6.523
v 14.477 12.500 7.477
v 14.477 13.500 7.477
v 13.523 13.500 6.523
v 15.477 12.500 6.523
v 14.523 12.500 7.477
v 14.523 13.500 7.477
v 15.477 13.500 6.523
v 14.523 12.500 6.523
v 15.477 12.500 7.477
v 15.477 13.500 7.477
v 14.523 13.500 6.523
v 16.477 12.500 6.523
v 15.523 12.500 7.477
v 15.523 13.500 7.477
v 16.477 13.500 6.523
v 15.523 12.500 6.523
v 16.477 12.500 7.477
v 16.477 13.500 7.477
v 15.523 13.500 6.523
v 17.477 12.500 6.523
v 16.523 12.500 7.477
v 16.523 13.500 7.477
v 17.477 13.500 6.523
v 16.523 12.500 6.523
v 17.477 12.500 7.477
v 17.477 13.500 7.477
v 16.523 13.500 6.523
v 18.477 12.500 6.523
v 17.523 12.500 7.477
v 17.523 13.500 7.477
v 18.477 13.500 6.523
v 17.523 12.500 6.523
v 18.477 12.500 7.477
v 18.477 13.500 7.477
v 17.523 13.500 6.523
v 14.477 12.500 7.523
v 13.523 12.500 8.477
v 13.523 13.500 8.477
v 14.477 13.500 7.523
v 13.523 12.500 7.523
v 14.477 12.500 8.477
v 14.477 13.500 8.477
v 13.523 13.500 7.523
v 15.477 12.500 7.523
v 14.523 12.500 8.477
v 14.523 13.500 8.477
v 15.477 13.500 7.523
v 14.523 12.500 7.523
v 15.477 12.500 8.477
v 15.477 13.500 8.477
v 14.523 13.500 7.523
v 16.477 12.500 7.523
v 15.523 12.500 8.477
v 15.523 13.500 8.477
v 16.477 13.500 7.523
v 15.523 12.500 7.523
v 16.477 12.500 8.477
v 16.477 13.500 8.477
v 15.523 13.500 7.523
v 17.477 12.500 7.523
v 16.523 12.500 8.477
v 16.523 13.500 8.477
v 17.477 13.500 7.523
v 16.523 12.500 7.523
v 17.477 12.500 8.477
v 17.477 13.500 8.477
v 16.523 13.500 7.523
v 18.477 12.500 7.523
v 17.523 12.500 8.477
v 17.523 13.500 8.477
v 18.477 13.500 7.523
v 17.523 12.500 7.523
v 18.477 12.500 8.477
v 18.477 13.500 8.477
v 17.523 13.500 7.523
v 14.477 12.500 8.523
v 13.523 12.500 9.477
v 13.523 13.500 9.477
v 14.477 13.500 8.523
v 13.523 12.500 8.523
v 14.477 12.500 9.477
v 14.477 13.500 9.477
v 13.523 13.500 8.523
v 15.477 12.500 8.523
v 14.523 12.500 9.477
v 14.523 13.500 9.477
v 15.477 13.500 8.523
v 14.523 12.500 8.523
v 15.477 12.500 9.477
v 15.477 13.500 9.477
v 14.523 13.500 8.523
v 16.477 12.500 8.523
v 15.523 12.500 9.477
v 15.523 13.500 9.477
v 16.477 13.500 8.523
v 15.523 12.500 8.523
v 16.477 12.500 9.477
v 16.477 13.500 9.477
v 15.523 13.500 8.523
v 17.477 12.500 8.523
v 16.523 12.500 9.477
v 16.523 13.500 9.477
v 17.477 13.500 8.523
v 16.523 12.500 8.523
v 17.477 12.500 9.477
v 17.477 13.500 9.477
v 16.523 13.500 8.523
v 18.477 12.500 8.523
v 17.523 12.500 9.477
v 17.523 13.500 9.477
v 18.477 13.500 8.523
v 17.523 12.500 8.523
v 18.477 12.500 9.477
v 18.477 13.500 9.477
v 17.523 13.500 8.523
v 15.477 12.500 9.523
v 14.523 12.500 10.477
v 14.523 13.500 10.477
v 15.477 13.500 9.523
v 14.523 12.500 9.523
v 15.477 12.500 10.477
v 15.477 13.500 10.477
v 14.523 13.500 9.523
v 16.477 12.500 9.523
v 15.523 12.500 10.477
v 15.523 13.500 10.477
v 16.477 13.500 9.523
v 15.523 12.500 9.523
v 16.477 12.500 10.477
v 16.477 13.500 10.477
v 15.523 13.500 9.523
v 17.477 12.500 9.523
v 16.523 12.500 10.477
v 16.523 13.500 10.477
v 17.477 13.500 9.523
v 16.523 12.500 9.523
v 17.477 12.500 10.477
v 17.477 13.500 10.477
v 16.523 13.500 9.523
v 18.477 12.500 9.523
v 17.523 12.500 10.477
v 17.523 13.500 10.477
v 18.477 13.500 9.523
v 17.523 12.500 9.523
v 18.477 12.500 10.477
v 18.477 13.500 10.477
v 17.523 13.500 9.523
v 14.477 12.500 10.523
v 13.523 12.500 11.477
v 13.523 13.500 11.477
v 14.477 13.500 10.523
v 13.523 12.500 10.523
v 14.477 12.500 11.477
v 14.477 13.500 11.477
v 13.523 13.500 10.523
v 17.477 12.500 10.523
v 16.523 12.500 11.477
v 16.523 13.500 11.477
v 17.477 13.500 10.523
v 16.523 12.500 10.523
v 17.477 12.500 11.477
v 17.477 13.500 11.477
v 16.523 13.500 10.523
v 18.477 12.500 10.523
v 17.523 12.500 11.477
v 17.523 13.500 11.477
v 18.477 13.500 10.523
v 17.523 12.500 10.523
v 18.477 12.500 11.477
v 18.477 13.500 11.477
v 17.523 13.500 10.523
v 17.500 10.375 14.500
v 18.500 10.255 14.500
v 18.500 10.255 13.500
v 17.500 10.375 13.500
v 15.500 10.500 15.500
v 16.500 10.500 15.500
v 16.500 10.375 14.500
v 15.500 10.375 14.500
v 14.500 10.500 16.500
v 15.500 10.500 16.500
v 14.500 10.375 15.500
v 15.500 11.375 16.500
v 16.500 11.375 16.500
v 16.500 10.535 15.500
v 15.500 10.535 15.500
v 16.500 10.500 17.500
v 17.500 10.375 17.500
v 17.500 10.375 16.500
v 16.500 10.500 16.500
v 18.500 10.255 17.500
v 18.500 10.255 16.500
v 19.500 9.655 17.500
v 20.500 9.655 17.500
v 20.500 9.535 16.500
v 19.500 9.535 16.500
v 10.500 9.655 18.500
v 11.500 9.655 18.500
v 11.500 9.535 17.500
v 10.500 9.535 17.500
v 14.500 11.255 18.500
v 15.500 11.255 18.500
v 15.500 11.375 17.500
v 14.500 11.375 17.500
v 19.500 9.895 18.500
v 20.500 9.775 18.500
v 9.500 9.655 19.500
v 10.500 9.775 19.500
v 9.500 9.535 18.500
v 11.500 9.895 19.500
v 12.500 10.135 19.500
v 13.500 10.255 19.500
v 13.500 10.255 18.500
v 12.500 10.135 18.500
v 14.500 10.500 19.500
v 14.500 10.500 18.500
v 14.500 10.535 19.500
v 15.500 10.535 19.500
v 15.500 10.500 19.500
v 16.500 10.255 19.500
v 16.500 10.255 18.500
v 15.500 10.500 18.500
v 17.500 10.135 19.500
v 17.500 10.135 18.500
v 18.500 10.015 19.500
v 18.500 10.015 18.500
v 19.500 9.895 19.500
v 20.500 9.775 19.500
v 8.500 9.535 20.500
v 9.500 9.655 20.500
v 8.500 9.535 19.500
v 10.500 9.775 20.500
v 11.500 9.895 20.500
v 12.500 10.015 20.500
v 13.500 10.135 20.500
v 14.500 10.255 20.500
v 15.500 10.255 20.500
v 16.500 10.135 20.500
v 17.500 10.015 20.500
v 18.500 9.895 20.500
v 19.500 9.775 20.500
v 20.500 9.655 20.500
v 9.500 9.535 21.500
v 10.500 9.655 21.500
v 11.500 9.775 21.500
v 12.500 9.895 21.500
v 13.500 10.015 21.500
v 14.500 10.135 21.500
v 15.500 10.135 21.500
v 16.500 10.015 21.500
v 17.500 9.895 21.500
v 18.500 9.775 21.500
v 19.500 9.655 21.500
v 20.500 9.535 21.500
v 10.500 9.535 22.500
v 19.500 9.535 22.500
v 15.500 10.375 13.500
v 16.500 10.375 13.500
v 16.500 10.375 12.500
v 15.500 10.375 12.500
v 15.375 11.688 6.500
v 15.375 11.688 11.500
v 15.375 12.500 11.500
v 15.375 12.500 6.500
v 15.375 11.500 6.625
v 15.375 11.500 6.750
v 15.375 11.688 6.750
v 15.375 11.688 6.625
v 15.375 11.500 7.250
v 15.375 11.500 7.375
v 15.375 11.688 7.375
v 15.375 11.688 7.250
v 15.375 11.500 7.625
v 15.375 11.500 7.750
v 15.375 11.688 7.750
v 15.375 11.688 7.625
v 15.375 11.500 8.250
v 15.375 11.500 8.375
v 15.375 11.688 8.375
v 15.375 11.688 8.250
v 15.375 11.500 8.625
v 15.375 11.500 8.750
v 15.375 11.688 8.750
v 15.375 11.688 8.625
v 15.375 11.500 9.250
v 15.375 11.500 9.375
v 15.375 11.688 9.375
v 15.375 11.688 9.250
v 15.375 11.500 9.625
v 15.375 11.500 9.750
v 15.375 11.688 9.750
v 15.375 11.688 9.625
v 15.375 11.500 10.250
v 15.375 11.500 10.375
v 15.375 11.688 10.375
v 15.375 11.688 10.250
v 15.375 11.500 10.625
v 15.375 11.500 10.750
v 15.375 11.688 10.750
v 15.375 11.688 10.625
v 15.375 11.500 11.250
v 15.375 11.500 11.375
v 15.375 11.688 11.375
v 15.375 11.688 11.250
v 13.625 11.688 10.625
v 14.375 11.688 10.625
v 14.375 12.500 10.625
v 13.625 12.500 10.625
v 13.500 11.500 10.625
v 13.750 11.500 10.625
v 13.750 11.688 10.625
v 13.500 11.688 10.625
v 14.250 11.500 10.625
v 14.750 11.500 10.625
v 14.750 11.688 10.625
v 14.250 11.688 10.625
v 14.625 11.688 10.625
v 15.375 12.500 10.625
v 14.625 12.500 10.625
v 15.250 11.500 10.625
v 15.750 11.500 10.625
v 15.750 11.688 10.625
v 15.250 11.688 10.625
v 15.625 11.688 10.625
v 16.375 11.688 10.625
v 16.375 12.500 10.625
v 15.625 12.500 10.625
v 16.250 11.500 10.625
v 16.750 11.500 10.625
v 16.750 11.688 10.625
v 16.250 11.688 10.625
v 16.625 11.688 10.625
v 17.375 11.688 10.625
v 17.375 12.500 10.625
v 16.625 12.500 10.625
v 17.250 11.500 10.625
v 17.750 11.500 10.625
v 17.750 11.688 10.625
v 17.250 11.688 10.625
v 17.625 11.688 10.625
v 18.375 11.688 10.625
v 18.375 12.500 10.625
v 17.625 12.500 10.625
v 18.250 11.500 10.625
v 18.500 11.500 10.625
v 18.500 11.688 10.625
v 18.250 11.688 10.625
v 19.500 9.500 11.500
v 19.500 10.500 11.500
v 19.500 9.500 15.500
v 19.500 9.500 12.500
v 19.500 10.500 12.500
v 19.500 10.500 15.500
v 19.500 9.500 18.500
v 19.500 9.500 16.500
v 19.500 10.500 16.500
v 19.500 10.500 18.500
v 14.375 11.688 7.375
v 13.625 11.688 7.375
v 13.625 12.500 7.375
v 14.375 12.500 7.375
v 13.750 11.500 7.375
v 13.500 11.500 7.375
v 13.500 11.688 7.375
v 13.750 11.688 7.375
v 14.750 11.500 7.375
v 14.250 11.500 7.375
v 14.250 11.688 7.375
v 14.750 11.688 7.375
v 14.625 11.688 7.375
v 14.625 12.500 7.375
v 15.375 12.500 7.375
v 15.750 11.500 7.375
v 15.250 11.500 7.375
v 15.250 11.688 7.375
v 15.750 11.688 7.375
v 16.375 11.688 7.375
v 15.625 11.688 7.375
v 15.625 12.500 7.375
v 16.375 12.500 7.375
v 16.750 11.500 7.375
v 16.250 11.500 7.375
v 16.250 11.688 7.375
v 16.750 11.688 7.375
v 17.375 11.688 7.375
v 16.625 11.688 7.375
v 16.625 12.500 7.375
v 17.375 12.500 7.375
v 17.750 11.500 7.375
v 17.250 11.500 7.375
v 17.250 11.688 7.375
v 17.750 11.688 7.375
v 18.375 11.688 7.375
v 17.625 11.688 7.375
v 17.625 12.500 7.375
v 18.375 12.500 7.375
v 18.500 11.500 7.375
v 18.250 11.500 7.375
v 18.250 11.688 7.375
v 18.500 11.688 7.375
v 15.500 11.688 11.500
v 15.500 11.688 6.500
v 15.500 12.500 6.500
v 15.500 12.500 11.500
v 15.500 11.500 6.750
v 15.500 11.500 6.500
v 15.500 11.688 6.750
v 15.500 11.500 7.625
v 15.500 11.500 7.250
v 15.500 11.688 7.250
v 15.500 11.688 7.625
v 15.500 11.500 7.750
v 15.500 11.688 7.750
v 15.500 11.500 8.625
v 15.500 11.500 8.250
v 15.500 11.688 8.250
v 15.500 11.688 8.625
v 15.500 11.500 8.750
v 15.500 11.688 8.750
v 15.500 11.500 9.625
v 15.500 11.500 9.250
v 15.500 11.688 9.250
v 15.500 11.688 9.625
v 15.500 11.500 9.750
v 15.500 11.688 9.750
v 15.500 11.500 10.625
v 15.500 11.500 10.250
v 15.500 11.688 10.250
v 15.500 11.688 10.625
v 15.500 11.500 10.750
v 15.500 11.688 10.750
v 15.500 11.500 11.500
v 15.500 11.500 11.250
v 15.500 11.688 11.250
v 15.500 9.500 15.500
v 15.500 9.500 12.500
v 15.500 10.500 12.500
v 13.500 11.500 7.750
v 13.625 11.500 7.750
v 13.625 11.688 7.750
v 13.500 11.688 7.750
v 14.375 11.500 7.750
v 14.625 11.500 7.750
v 14.625 11.688 7.750
v 14.375 11.688 7.750
v 15.625 11.500 7.750
v 15.625 11.688 7.750
v 16.375 11.500 7.750
v 16.625 11.500 7.750
v 16.625 11.688 7.750
v 16.375 11.688 7.750
v 17.375 11.500 7.750
v 17.625 11.500 7.750
v 17.625 11.688 7.750
v 17.375 11.688 7.750
v 18.375 11.500 7.750
v 18.500 11.500 7.750
v 18.500 11.688 7.750
v 18.375 11.688 7.750
v 12.500 10.500 11.500
v 12.500 10.500 12.500
v 17.500 10.500 12.500
v 17.500 10.500 11.500
v 12.500 10.500 14.500
v 15.500 10.500 14.500
v 16.500 10.500 13.500
v 19.500 10.500 13.500
v 16.500 10.500 12.500
v 18.500 10.500 14.500
v 19.500 10.500 14.500
v 18.500 10.500 13.500
v 12.500 10.500 15.500
v 13.500 10.500 15.500
v 13.500 10.500 14.500
v 14.500 10.500 15.500
v 14.500 10.500 14.500
v 17.500 10.500 15.500
v 17.500 10.500 14.500
v 18.500 10.500 16.500
v 18.500 10.500 15.500
v 13.500 10.500 17.500
v 14.500 10.500 17.500
v 13.500 10.500 16.500
v 18.500 10.500 17.500
v 19.500 10.500 17.500
v 12.500 10.500 18.500
v 12.500 10.500 17.500
v 13.500 11.500 10.750
v 13.625 11.500 10.750
v 13.625 11.688 10.750
v 13.500 11.688 10.750
v 14.375 11.500 10.750
v 14.625 11.500 10.750
v 14.625 11.688 10.750
v 14.375 11.688 10.750
v 15.625 11.500 10.750
v 15.625 11.688 10.750
v 16.375 11.500 10.750
v 16.625 11.500 10.750
v 16.625 11.688 10.750
v 16.375 11.688 10.750
v 17.375 11.500 10.750
v 17.625 11.500 10.750
v 17.625 11.688 10.750
v 17.375 11.688 10.750
v 18.375 11.500 10.750
v 18.500 11.500 10.750
v 18.500 11.688 10.750
v 18.375 11.688 10.750
v 13.500 14.500 11.500
v 18.500 14.500 11.500
v 18.500 14.500 6.500
v 13.500 14.500 6.500
v 12.501 9.500 18.500
v 12.501 9.500 19.500
v 12.501 10.135 19.500
v 12.501 10.135 18.500
v 9.501 9.500 18.500
v 9.501 9.500 19.500
v 9.501 9.655 19.500
v 9.501 9.535 18.500
v 9.501 9.500 20.500
v 9.501 9.500 21.500
v 9.501 9.535 21.500
v 9.501 9.655 20.500
v 20.499 9.500 17.500
v 20.499 9.500 16.500
v 20.499 9.535 16.500
v 20.499 9.655 17.500
v 20.499 9.500 18.500
v 20.499 9.775 18.500
v 20.499 9.500 19.500
v 20.499 9.775 19.500
v 20.499 9.500 20.500
v 20.499 9.655 20.500
v 20.499 9.500 21.500
v 20.499 9.535 21.500
v 13.625 11.688 8.625
v 14.375 11.688 8.625
v 14.375 12.500 8.625
v 13.625 12.500 8.625
v 13.500 11.500 8.625
v 13.750 11.500 8.625
v 13.750 11.688 8.625
v 13.500 11.688 8.625
v 14.250 11.500 8.625
v 14.750 11.500 8.625
v 14.750 11.688 8.625
v 14.250 11.688 8.625
v 14.625 11.688 8.625
v 15.375 12.500 8.625
v 14.625 12.500 8.625
v 15.250 11.500 8.625
v 15.750 11.500 8.625
v 15.750 11.688 8.625
v 15.250 11.688 8.625
v 15.625 11.688 8.625
v 16.375 11.688 8.625
v 16.375 12.500 8.625
v 15.625 12.500 8.625
v 16.250 11.500 8.625
v 16.750 11.500 8.625
v 16.750 11.688 8.625
v 16.250 11.688 8.625
v 16.625 11.688 8.625
v 17.375 11.688 8.625
v 17.375 12.500 8.625
v 16.625 12.500 8.625
v 17.250 11.500 8.625
v 17.750 11.500 8.625
v 17.750 11.688 8.625
v 17.250 11.688 8.625
v 17.625 11.688 8.625
v 18.375 11.688 8.625
v 18.375 12.500 8.625
v 17.625 12.500 8.625
v 18.250 11.500 8.625
v 18.500 11.500 8.625
v 18.500 11.688 8.625
v 18.250 11.688 8.625
v 9.500 9.500 21.499
v 10.500 9.500 21.499
v 10.500 9.655 21.499
v 9.500 9.535 21.499
v 12.500 9.500 21.499
v 13.500 9.500 21.499
v 13.500 10.015 21.499
v 12.500 9.895 21.499
v 19.500 9.500 21.499
v 20.500 9.500 21.499
v 20.500 9.535 21.499
v 19.500 9.655 21.499
v 15.501 10.500 15.500
v 15.501 10.500 16.500
v 15.501 11.375 16.500
v 15.501 10.535 15.500
v 13.625 11.500 11.250
v 13.500 11.500 11.250
v 13.500 11.688 11.250
v 13.625 11.688 11.250
v 14.625 11.500 11.250
v 14.375 11.500 11.250
v 14.375 11.688 11.250
v 14.625 11.688 11.250
v 15.625 11.500 11.250
v 15.625 11.688 11.250
v 16.625 11.500 11.250
v 16.375 11.500 11.250
v 16.375 11.688 11.250
v 16.625 11.688 11.250
v 17.625 11.500 11.250
v 17.375 11.500 11.250
v 17.375 11.688 11.250
v 17.625 11.688 11.250
v 18.500 11.500 11.250
v 18.375 11.500 11.250
v 18.375 11.688 11.250
v 18.500 11.688 11.250
v 14.375 11.688 9.375
v 13.625 11.688 9.375
v 13.625 12.500 9.375
v 14.375 12.500 9.375
v 13.750 11.500 9.375
v 13.500 11.500 9.375
v 13.500 11.688 9.375
v 13.750 11.688 9.375
v 14.750 11.500 9.375
v 14.250 11.500 9.375
v 14.250 11.688 9.375
v 14.750 11.688 9.375
v 14.625 11.688 9.375
v 14.625 12.500 9.375
v 15.375 12.500 9.375
v 15.750 11.500 9.375
v 15.250 11.500 9.375
v 15.250 11.688 9.375
v 15.750 11.688 9.375
v 16.375 11.688 9.375
v 15.625 11.688 9.375
v 15.625 12.500 9.375
v 16.375 12.500 9.375
v 16.750 11.500 9.375
v 16.250 11.500 9.375
v 16.250 11.688 9.375
v 16.750 11.688 9.375
v 17.375 11.688 9.375
v 16.625 11.688 9.375
v 16.625 12.500 9.375
v 17.375 12.500 9.375
v 17.750 11.500 9.375
v 17.250 11.500 9.375
v 17.250 11.688 9.375
v 17.750 11.688 9.375
v 18.375 11.688 9.375
v 17.625 11.688 9.375
v 17.625 12.500 9.375
v 18.375 12.500 9.375
v 18.500 11.500 9.375
v 18.250 11.500 9.375
v 18.250 11.688 9.375
v 18.500 11.688 9.375
v 14.375 11.688 11.375
v 13.625 11.688 11.375
v 13.625 12.500 11.375
v 14.375 12.500 11.375
v 13.750 11.500 11.375
v 13.500 11.500 11.375
v 13.500 11.688 11.375
v 13.750 11.688 11.375
v 14.750 11.500 11.375
v 14.250 11.500 11.375
v 14.250 11.688 11.375
v 14.750 11.688 11.375
v 14.625 11.688 11.375
v 14.625 12.500 11.375
v 15.375 12.500 11.375
v 15.750 11.500 11.375
v 15.250 11.500 11.375
v 15.250 11.688 11.375
v 15.750 11.688 11.375
v 16.375 11.688 11.375
v 15.625 11.688 11.375
v 15.625 12.500 11.375
v 16.375 12.500 11.375
v 16.750 11.500 11.375
v 16.250 11.500 11.375
v 16.250 11.688 11.375
v 16.750 11.688 11.375
v 17.375 11.688 11.375
v 16.625 11.688 11.375
v 16.625 12.500 11.375
v 17.375 12.500 11.375
v 17.750 11.500 11.375
v 17.250 11.500 11.375
v 17.250 11.688 11.375
v 17.750 11.688 11.375
v 18.375 11.688 11.375
v 17.625 11.688 11.375
v 17.625 12.500 11.375
v 18.375 12.500 11.375
v 18.500 11.500 11.375
v 18.250 11.500 11.375
v 18.250 11.688 11.375
v 18.500 11.688 11.375
v 13.500 11.688 7.500
v 14.375 11.688 7.500
v 14.375 12.500 7.500
v 13.500 12.500 7.500
v 15.375 11.688 7.500
v 15.375 12.500 7.500
v 13.500 11.500 7.500
v 13.750 11.500 7.500
v 13.750 11.688 7.500
v 14.250 11.500 7.500
v 14.750 11.500 7.500
v 14.750 11.688 7.500
v 14.250 11.688 7.500
v 16.375 11.688 7.500
v 16.375 12.500 7.500
v 15.250 11.500 7.500
v 15.750 11.500 7.500
v 15.750 11.688 7.500
v 15.250 11.688 7.500
v 17.375 11.688 7.500
v 17.375 12.500 7.500
v 16.250 11.500 7.500
v 16.750 11.500 7.500
v 16.750 11.688 7.500
v 16.250 11.688 7.500
v 18.375 11.688 7.500
v 18.375 12.500 7.500
v 17.250 11.500 7.500
v 17.750 11.500 7.500
v 17.750 11.688 7.500
v 17.250 11.688 7.500
v 18.500 11.688 7.500
v 18.500 12.500 7.500
v 18.250 11.500 7.500
v 18.500 11.500 7.500
v 18.250 11.688 7.500
v 14.625 11.688 7.500
v 14.625 12.500 7.500
v 15.625 11.688 7.500
v 15.625 12.500 7.500
v 16.625 11.688 7.500
v 16.625 12.500 7.500
v 17.625 11.688 7.500
v 17.625 12.500 7.500
v 13.500 11.500 6.750
v 13.625 11.500 6.750
v 13.625 11.688 6.750
v 13.500 11.688 6.750
v 14.375 11.500 6.750
v 14.625 11.500 6.750
v 14.625 11.688 6.750
v 14.375 11.688 6.750
v 15.625 11.500 6.750
v 15.625 11.688 6.750
v 16.375 11.500 6.750
v 16.625 11.500 6.750
v 16.625 11.688 6.750
v 16.375 11.688 6.750
v 17.375 11.500 6.750
v 17.625 11.500 6.750
v 17.625 11.688 6.750
v 17.375 11.688 6.750
v 18.375 11.500 6.750
v 18.500 11.500 6.750
v 18.500 11.688 6.750
v 18.375 11.688 6.750
v 10.500 9.500 22.499
v 11.500 9.500 22.499
v 11.500 9.655 22.499
v 10.500 9.535 22.499
v 18.500 9.500 22.499
v 19.500 9.500 22.499
v 19.500 9.535 22.499
v 18.500 9.655 22.499
v 17.750 11.500 6.625
v 17.750 11.500 6.500
v 17.750 11.688 6.500
v 17.750 11.688 6.625
v 17.750 11.500 7.625
v 17.750 11.688 7.625
v 17.750 11.500 8.375
v 17.750 11.688 8.375
v 17.750 11.500 9.625
v 17.750 11.688 9.625
v 17.750 11.500 10.375
v 17.750 11.688 10.375
v 17.750 11.500 11.500
v 17.750 11.688 11.500
v 14.750 11.500 6.625
v 14.750 11.500 6.500
v 14.750 11.688 6.500
v 14.750 11.688 6.625
v 14.750 11.500 7.625
v 14.750 11.688 7.625
v 14.750 11.500 8.375
v 14.750 11.688 8.375
v 14.750 11.500 9.625
v 14.750 11.688 9.625
v 14.750 11.500 10.375
v 14.750 11.688 10.375
v 14.750 11.500 11.500
v 14.750 11.688 11.500
v 13.500 11.688 11.500
v 14.375 11.688 11.500
v 14.375 12.500 11.500
v 13.500 12.500 11.500
v 13.500 11.500 11.500
v 13.750 11.500 11.500
v 13.750 11.688 11.500
v 14.250 11.500 11.500
v 14.250 11.688 11.500
v 13.500 13.500 11.500
v 18.500 13.500 11.500
v 16.375 11.688 11.500
v 16.375 12.500 11.500
v 15.250 11.500 11.500
v 15.750 11.500 11.500
v 15.750 11.688 11.500
v 15.250 11.688 11.500
v 17.375 11.688 11.500
v 17.375 12.500 11.500
v 16.250 11.500 11.500
v 16.750 11.500 11.500
v 16.750 11.688 11.500
v 16.250 11.688 11.500
v 18.375 11.688 11.500
v 18.375 12.500 11.500
v 17.250 11.500 11.500
v 17.250 11.688 11.500
v 17.500 9.500 11.500
v 18.500 11.688 11.500
v 18.500 12.500 11.500
v 18.250 11.500 11.500
v 18.500 11.500 11.500
v 18.250 11.688 11.500
v 12.499 9.500 22.500
v 12.499 9.500 21.500
v 12.499 9.895 21.500
v 12.499 9.655 22.500
v 12.500 9.500 15.500
v 13.500 9.500 15.500
v 14.500 9.500 15.500
v 18.500 8.500 15.500
v 19.500 8.500 15.500
v 18.500 9.500 15.500
v 21.500 8.500 15.500
v 21.500 9.500 15.500
v 17.500 8.500 15.500
v 16.500 8.500 15.500
v 16.500 9.500 15.500
v 17.500 9.500 15.500
v 16.250 11.500 6.500
v 16.250 11.500 6.625
v 16.250 11.688 6.625
v 16.250 11.688 6.500
v 16.250 11.500 7.625
v 16.250 11.688 7.625
v 16.250 11.500 8.375
v 16.250 11.688 8.375
v 16.250 11.500 9.625
v 16.250 11.688 9.625
v 16.250 11.500 10.375
v 16.250 11.688 10.375
v 19.499 9.500 22.500
v 19.499 9.500 21.500
v 19.499 9.655 21.500
v 19.499 9.535 22.500
v 13.500 9.500 17.500
v 12.500 9.500 17.500
v 18.500 9.500 17.500
v 14.500 9.500 17.500
v 9.500 9.500 19.501
v 8.500 9.500 19.501
v 8.500 9.535 19.501
v 9.500 9.655 19.501
v 12.500 9.500 19.501
v 11.500 9.500 19.501
v 11.500 9.895 19.501
v 12.500 10.135 19.501
v 13.625 11.500 8.250
v 13.500 11.500 8.250
v 13.500 11.688 8.250
v 13.625 11.688 8.250
v 14.625 11.500 8.250
v 14.375 11.500 8.250
v 14.375 11.688 8.250
v 14.625 11.688 8.250
v 15.625 11.500 8.250
v 15.625 11.688 8.250
v 16.625 11.500 8.250
v 16.375 11.500 8.250
v 16.375 11.688 8.250
v 16.625 11.688 8.250
v 17.625 11.500 8.250
v 17.375 11.500 8.250
v 17.375 11.688 8.250
v 17.625 11.688 8.250
v 18.500 11.500 8.250
v 18.375 11.500 8.250
v 18.375 11.688 8.250
v 18.500 11.688 8.250
v 16.499 9.500 15.500
v 16.499 9.500 14.500
v 16.499 10.375 14.500
v 16.499 10.500 15.500
v 16.499 10.500 16.500
v 16.499 10.535 15.500
v 16.499 11.375 16.500
v 16.499 10.500 17.500
v 16.499 11.375 17.500
v 18.500 11.688 6.500
v 18.500 12.500 6.500
v 18.500 11.500 6.500
v 18.500 11.500 7.625
v 18.500 11.500 7.250
v 18.500 11.688 7.250
v 18.500 11.688 7.625
v 18.500 13.500 6.500
v 18.500 11.500 8.750
v 18.500 11.688 8.750
v 18.500 11.500 9.625
v 18.500 11.500 9.250
v 18.500 11.688 9.250
v 18.500 11.688 9.625
v 18.500 11.500 9.750
v 18.500 11.688 9.750
v 18.500 11.500 10.250
v 18.500 11.688 10.250
v 18.500 9.500 13.500
v 18.500 9.500 14.500
v 18.500 8.500 16.500
v 18.500 9.500 16.500
v 13.500 11.500 9.750
v 13.625 11.500 9.750
v 13.625 11.688 9.750
v 13.500 11.688 9.750
v 14.375 11.500 9.750
v 14.625 11.500 9.750
v 14.625 11.688 9.750
v 14.375 11.688 9.750
v 15.625 11.500 9.750
v 15.625 11.688 9.750
v 16.375 11.500 9.750
v 16.625 11.500 9.750
v 16.625 11.688 9.750
v 16.375 11.688 9.750
v 17.375 11.500 9.750
v 17.625 11.500 9.750
v 17.625 11.688 9.750
v 17.375 11.688 9.750
v 18.375 11.500 9.750
v 18.375 11.688 9.750
v 14.500 10.500 19.499
v 15.500 10.500 19.499
v 15.500 10.535 19.499
v 14.500 10.535 19.499
v 13.500 13.500 6.500
v 14.625 11.688 11.500
v 14.625 11.688 6.500
v 14.625 12.500 6.500
v 14.625 12.500 11.500
v 14.625 11.500 6.625
v 14.625 11.688 6.625
v 14.625 11.500 7.375
v 14.625 11.500 7.250
v 14.625 11.688 7.250
v 14.625 11.500 7.625
v 14.625 11.688 7.625
v 14.625 11.500 8.375
v 14.625 11.688 8.375
v 14.625 11.500 8.750
v 14.625 11.500 8.625
v 14.625 11.688 8.750
v 14.625 11.500 9.375
v 14.625 11.500 9.250
v 14.625 11.688 9.250
v 14.625 11.500 9.625
v 14.625 11.688 9.625
v 14.625 11.500 10.375
v 14.625 11.500 10.250
v 14.625 11.688 10.250
v 14.625 11.688 10.375
v 14.625 11.500 10.625
v 14.625 11.500 11.375
v 17.250 11.500 6.500
v 17.250 11.500 6.625
v 17.250 11.688 6.625
v 17.250 11.688 6.500
v 17.250 11.500 7.625
v 17.250 11.688 7.625
v 17.250 11.500 8.375
v 17.250 11.688 8.375
v 17.250 11.500 9.625
v 17.250 11.688 9.625
v 17.250 11.500 10.375
v 17.250 11.688 10.375
v 16.625 11.688 11.500
v 16.625 11.688 6.500
v 16.625 12.500 6.500
v 16.625 12.500 11.500
v 16.625 11.500 6.625
v 16.625 11.688 6.625
v 16.625 11.500 7.375
v 16.625 11.500 7.250
v 16.625 11.688 7.250
v 16.625 11.500 7.625
v 16.625 11.688 7.625
v 16.625 11.500 8.375
v 16.625 11.688 8.375
v 16.625 11.500 8.750
v 16.625 11.500 8.625
v 16.625 11.688 8.750
v 16.625 11.500 9.375
v 16.625 11.500 9.250
v 16.625 11.688 9.250
v 16.625 11.500 9.625
v 16.625 11.688 9.625
v 16.625 11.500 10.375
v 16.625 11.500 10.250
v 16.625 11.688 10.250
v 16.625 11.688 10.375
v 16.625 11.500 10.625
v 16.625 11.500 11.375
v 18.500 14.500 6.501
v 13.500 14.500 6.501
v 13.500 15.375 6.501
v 18.500 15.375 6.501
v 17.375 11.688 6.500
v 17.375 12.500 6.500
v 17.375 11.500 6.625
v 17.375 11.688 6.625
v 17.375 11.500 7.250
v 17.375 11.500 7.375
v 17.375 11.688 7.250
v 17.375 11.500 7.625
v 17.375 11.688 7.625
v 17.375 11.500 8.375
v 17.375 11.688 8.375
v 17.375 11.500 8.625
v 17.375 11.500 8.750
v 17.375 11.688 8.750
v 17.375 11.500 9.250
v 17.375 11.500 9.375
v 17.375 11.688 9.250
v 17.375 11.500 9.625
v 17.375 11.688 9.625
v 17.375 11.500 10.250
v 17.375 11.500 10.375
v 17.375 11.688 10.375
v 17.375 11.688 10.250
v 17.375 11.500 10.625
v 17.375 11.500 11.375
v 11.500 9.500 17.501
v 10.500 9.500 17.501
v 10.500 9.535 17.501
v 11.500 9.535 17.501
v 14.500 11.688 11.500
v 14.500 11.688 6.500
v 14.500 12.500 6.500
v 14.500 12.500 11.500
v 14.500 11.500 6.750
v 14.500 11.500 6.500
v 14.500 11.688 6.750
v 14.500 11.500 7.625
v 14.500 11.500 7.250
v 14.500 11.688 7.250
v 14.500 11.688 7.625
v 14.500 11.500 7.750
v 14.500 11.688 7.750
v 14.500 11.500 8.625
v 14.500 11.500 8.250
v 14.500 11.688 8.250
v 14.500 11.688 8.625
v 14.500 11.500 8.750
v 14.500 11.688 8.750
v 14.500 11.500 9.625
v 14.500 11.500 9.250
v 14.500 11.688 9.250
v 14.500 11.688 9.625
v 14.500 11.500 9.750
v 14.500 11.688 9.750
v 14.500 11.500 10.625
v 14.500 11.500 10.250
v 14.500 11.688 10.250
v 14.500 11.688 10.625
v 14.500 11.500 10.750
v 14.500 11.688 10.750
v 14.500 11.500 11.500
v 14.500 11.500 11.250
v 14.500 11.688 11.250
v 14.500 9.500 14.500
v 14.500 9.500 16.500
v 8.501 9.500 19.500
v 8.501 9.500 20.500
v 8.501 9.535 20.500
v 8.501 9.535 19.500
v 15.500 10.500 17.499
v 16.500 10.500 17.499
v 16.500 11.375 17.499
v 15.500 11.375 17.499
v 13.500 11.688 10.500
v 14.375 11.688 10.500
v 14.375 12.500 10.500
v 13.500 12.500 10.500
v 15.375 11.688 10.500
v 15.375 12.500 10.500
v 13.500 11.500 10.500
v 13.750 11.500 10.500
v 13.750 11.688 10.500
v 14.250 11.500 10.500
v 14.750 11.500 10.500
v 14.750 11.688 10.500
v 14.250 11.688 10.500
v 16.375 11.688 10.500
v 16.375 12.500 10.500
v 15.250 11.500 10.500
v 15.750 11.500 10.500
v 15.750 11.688 10.500
v 15.250 11.688 10.500
v 17.375 11.688 10.500
v 17.375 12.500 10.500
v 16.250 11.500 10.500
v 16.750 11.500 10.500
v 16.750 11.688 10.500
v 16.250 11.688 10.500
v 18.375 11.688 10.500
v 18.375 12.500 10.500
v 17.250 11.500 10.500
v 17.750 11.500 10.500
v 17.750 11.688 10.500
v 17.250 11.688 10.500
v 18.500 11.688 10.500
v 18.500 12.500 10.500
v 18.250 11.500 10.500
v 18.500 11.500 10.500
v 18.250 11.688 10.500
v 14.625 11.688 10.500
v 14.625 12.500 10.500
v 15.625 11.688 10.500
v 15.625 12.500 10.500
v 16.625 11.688 10.500
v 16.625 12.500 10.500
v 17.625 11.688 10.500
v 17.625 12.500 10.500
v 13.625 11.688 6.625
v 14.375 11.688 6.625
v 14.375 12.500 6.625
v 13.625 12.500 6.625
v 13.500 11.500 6.625
v 13.750 11.500 6.625
v 13.750 11.688 6.625
v 13.500 11.688 6.625
v 14.250 11.500 6.625
v 14.250 11.688 6.625
v 15.375 12.500 6.625
v 14.625 12.500 6.625
v 15.250 11.500 6.625
v 15.750 11.500 6.625
v 15.750 11.688 6.625
v 15.250 11.688 6.625
v 15.625 11.688 6.625
v 16.375 11.688 6.625
v 16.375 12.500 6.625
v 15.625 12.500 6.625
v 16.750 11.500 6.625
v 16.750 11.688 6.625
v 17.375 12.500 6.625
v 16.625 12.500 6.625
v 17.625 11.688 6.625
v 18.375 11.688 6.625
v 18.375 12.500 6.625
v 17.625 12.500 6.625
v 18.250 11.500 6.625
v 18.500 11.500 6.625
v 18.500 11.688 6.625
v 18.250 11.688 6.625
v 15.750 11.500 6.500
v 15.750 11.688 6.500
v 15.750 11.500 7.625
v 15.750 11.688 7.625
v 15.750 11.500 8.375
v 15.750 11.688 8.375
v 15.750 11.500 9.625
v 15.750 11.688 9.625
v 15.750 11.500 10.375
v 15.750 11.688 10.375
v 14.501 9.500 15.500
v 14.501 9.500 16.500
v 14.501 10.500 16.500
v 14.501 10.375 15.500
v 14.501 10.500 17.500
v 14.501 11.375 17.500
v 14.501 11.375 16.500
v 14.501 10.500 18.500
v 14.501 11.255 18.500
v 14.501 10.500 19.500
v 14.501 10.535 19.500
v 15.500 10.500 16.501
v 14.500 10.500 16.501
v 14.500 11.375 16.501
v 15.500 11.375 16.501
v 20.500 9.500 16.501
v 19.500 9.500 16.501
v 19.500 9.535 16.501
v 20.500 9.535 16.501
v 13.500 9.500 14.500
v 16.500 8.500 14.500
v 17.500 8.500 14.500
v 17.500 9.500 14.500
v 16.500 9.500 14.500
v 12.500 9.500 18.500
v 17.500 11.688 11.500
v 17.500 11.688 6.500
v 17.500 12.500 6.500
v 17.500 12.500 11.500
v 17.500 11.500 6.750
v 17.500 11.500 6.500
v 17.500 11.688 6.750
v 17.500 11.500 7.625
v 17.500 11.500 7.250
v 17.500 11.688 7.250
v 17.500 11.688 7.625
v 17.500 11.500 7.750
v 17.500 11.688 7.750
v 17.500 11.500 8.625
v 17.500 11.500 8.250
v 17.500 11.688 8.250
v 17.500 11.688 8.625
v 17.500 11.500 8.750
v 17.500 11.688 8.750
v 17.500 11.500 9.625
v 17.500 11.500 9.250
v 17.500 11.688 9.250
v 17.500 11.688 9.625
v 17.500 11.500 9.750
v 17.500 11.688 9.750
v 17.500 11.500 10.625
v 17.500 11.500 10.250
v 17.500 11.688 10.250
v 17.500 11.688 10.625
v 17.500 11.500 10.750
v 17.500 11.688 10.750
v 17.500 11.500 11.500
v 17.500 11.500 11.250
v 17.500 11.688 11.250
v 17.500 9.500 12.500
v 13.625 11.500 10.250
v 13.500 11.500 10.250
v 13.500 11.688 10.250
v 13.625 11.688 10.250
v 14.375 11.500 10.250
v 14.375 11.688 10.250
v 15.625 11.500 10.250
v 15.625 11.688 10.250
v 16.375 11.500 10.250
v 16.375 11.688 10.250
v 17.625 11.500 10.250
v 17.625 11.688 10.250
v 18.375 11.500 10.250
v 18.375 11.688 10.250
v 17.625 11.688 11.500
v 17.625 11.688 6.500
v 17.625 12.500 6.500
v 17.625 12.500 11.500
v 17.625 11.500 6.625
v 17.625 11.500 7.375
v 17.625 11.500 7.250
v 17.625 11.688 7.250
v 17.625 11.500 7.625
v 17.625 11.688 7.625
v 17.625 11.500 8.375
v 17.625 11.688 8.375
v 17.625 11.500 8.750
v 17.625 11.500 8.625
v 17.625 11.688 8.750
v 17.625 11.500 9.375
v 17.625 11.500 9.250
v 17.625 11.688 9.250
v 17.625 11.500 9.625
v 17.625 11.688 9.625
v 17.625 11.500 10.375
v 17.625 11.688 10.375
v 17.625 11.500 10.625
v 17.625 11.500 11.375
v 16.500 11.375 17.500
v 14.500 11.375 16.500
v 16.750 11.500 6.500
v 16.750 11.688 6.500
v 16.750 11.500 7.625
v 16.750 11.688 7.625
v 16.750 11.500 8.375
v 16.750 11.688 8.375
v 16.750 11.500 9.625
v 16.750 11.688 9.625
v 16.750 11.500 10.375
v 16.750 11.688 10.375
v 21.500 8.500 16.500
v 21.500 9.500 16.500
v 13.625 11.688 9.625
v 14.375 11.688 9.625
v 14.375 12.500 9.625
v 13.625 12.500 9.625
v 13.500 11.500 9.625
v 13.750 11.500 9.625
v 13.750 11.688 9.625
v 13.500 11.688 9.625
v 14.250 11.500 9.625
v 14.250 11.688 9.625
v 15.375 12.500 9.625
v 14.625 12.500 9.625
v 15.250 11.500 9.625
v 15.250 11.688 9.625
v 15.625 11.688 9.625
v 16.375 11.688 9.625
v 16.375 12.500 9.625
v 15.625 12.500 9.625
v 17.375 12.500 9.625
v 16.625 12.500 9.625
v 18.375 11.688 9.625
v 18.375 12.500 9.625
v 17.625 12.500 9.625
v 18.250 11.500 9.625
v 18.250 11.688 9.625
v 13.625 12.500 11.500
v 13.625 12.500 6.500
v 13.500 12.500 6.500
v 14.375 12.500 6.500
v 13.625 12.500 7.625
v 14.375 12.500 7.625
v 15.625 12.500 11.500
v 15.625 12.500 6.500
v 14.625 12.500 7.625
v 15.375 12.500 7.625
v 16.375 12.500 6.500
v 15.625 12.500 7.625
v 16.375 12.500 7.625
v 16.625 12.500 7.625
v 17.375 12.500 7.625
v 18.375 12.500 6.500
v 17.625 12.500 7.625
v 18.375 12.500 7.625
v 14.375 12.500 8.375
v 13.625 12.500 8.375
v 15.375 12.500 8.375
v 14.625 12.500 8.375
v 16.375 12.500 8.375
v 15.625 12.500 8.375
v 17.375 12.500 8.375
v 16.625 12.500 8.375
v 18.375 12.500 8.375
v 17.625 12.500 8.375
v 14.375 12.500 10.375
v 13.625 12.500 10.375
v 15.375 12.500 10.375
v 14.625 12.500 10.375
v 16.375 12.500 10.375
v 15.625 12.500 10.375
v 17.375 12.500 10.375
v 16.625 12.500 10.375
v 18.375 12.500 10.375
v 17.625 12.500 10.375
v 13.750 11.500 6.500
v 13.750 11.688 6.500
v 13.750 11.500 7.625
v 13.750 11.688 7.625
v 13.750 11.500 8.375
v 13.750 11.688 8.375
v 13.750 11.500 10.375
v 13.750 11.688 10.375
v 14.375 11.688 8.375
v 13.625 11.688 8.375
v 13.500 11.500 8.375
v 13.500 11.688 8.375
v 14.250 11.500 8.375
v 14.250 11.688 8.375
v 15.250 11.500 8.375
v 15.250 11.688 8.375
v 16.375 11.688 8.375
v 15.625 11.688 8.375
v 18.375 11.688 8.375
v 18.500 11.500 8.375
v 18.250 11.500 8.375
v 18.250 11.688 8.375
v 18.500 11.688 8.375
v 16.375 11.688 6.500
v 16.375 11.500 6.625
v 16.375 11.500 7.250
v 16.375 11.500 7.375
v 16.375 11.688 7.250
v 16.375 11.500 7.625
v 16.375 11.688 7.625
v 16.375 11.500 8.375
v 16.375 11.500 8.625
v 16.375 11.500 8.750
v 16.375 11.688 8.750
v 16.375 11.500 9.250
v 16.375 11.500 9.375
v 16.375 11.688 9.250
v 16.375 11.500 9.625
v 16.375 11.500 10.375
v 16.375 11.688 10.375
v 16.375 11.500 10.625
v 16.375 11.500 11.375
v 15.250 11.500 6.500
v 15.250 11.688 6.500
v 15.250 11.500 7.625
v 15.250 11.688 7.625
v 15.250 11.500 10.375
v 15.250 11.688 10.375
v 14.375 11.688 10.375
v 13.625 11.688 10.375
v 13.500 11.500 10.375
v 13.500 11.688 10.375
v 14.250 11.500 10.375
v 14.250 11.688 10.375
v 15.625 11.688 10.375
v 18.375 11.688 10.375
v 18.500 11.500 10.375
v 18.250 11.500 10.375
v 18.250 11.688 10.375
v 18.500 11.688 10.375
v 16.500 9.500 14.499
v 17.500 9.500 14.499
v 17.500 10.375 14.499
v 16.500 10.375 14.499
v 15.499 10.500 18.500
v 15.499 10.500 17.500
v 15.499 11.375 17.500
v 15.499 11.255 18.500
v 15.499 10.500 19.500
v 15.499 10.535 19.500
v 8.500 9.500 20.499
v 9.500 9.500 20.499
v 9.500 9.655 20.499
v 8.500 9.535 20.499
v 18.499 14.500 11.500
v 18.499 14.500 6.500
v 18.499 15.375 6.500
v 18.499 15.375 11.500
v 13.625 11.500 7.250
v 13.500 11.500 7.250
v 13.500 11.688 7.250
v 13.625 11.688 7.250
v 14.375 11.500 7.250
v 14.375 11.688 7.250
v 15.625 11.500 7.250
v 15.625 11.688 7.250
v 18.375 11.500 7.250
v 18.375 11.688 7.250
v 14.250 11.500 6.500
v 14.250 11.688 6.500
v 14.250 11.500 7.625
v 14.250 11.688 7.625
v 6.500 9.500 15.500
v 22.500 9.500 11.500
v 18.500 9.500 12.500
v 18.500 9.500 11.500
v 22.500 9.500 12.500
v 15.500 9.500 13.500
v 16.500 9.500 13.500
v 16.500 9.500 12.500
v 22.500 9.500 15.500
v 15.500 9.500 14.500
v 17.500 9.500 13.500
v 6.500 9.500 16.500
v 16.500 9.500 16.500
v 22.500 9.500 16.500
v 6.500 9.500 17.500
v 13.500 9.500 16.500
v 22.500 9.500 18.500
v 6.500 9.500 18.500
v 6.500 9.500 19.500
v 14.500 9.500 19.500
v 14.500 9.500 18.500
v 15.500 9.500 19.500
v 15.500 9.500 18.500
v 22.500 9.500 19.500
v 13.500 11.500 8.750
v 13.625 11.500 8.750
v 13.625 11.688 8.750
v 13.500 11.688 8.750
v 14.375 11.500 8.750
v 14.375 11.688 8.750
v 15.625 11.500 8.750
v 15.625 11.688 8.750
v 18.375 11.500 8.750
v 18.375 11.688 8.750
v 13.500 11.688 9.500
v 14.375 11.688 9.500
v 14.375 12.500 9.500
v 13.500 12.500 9.500
v 15.375 11.688 9.500
v 15.375 12.500 9.500
v 13.500 11.500 9.500
v 13.750 11.500 9.500
v 13.750 11.688 9.500
v 14.250 11.500 9.500
v 14.750 11.500 9.500
v 14.750 11.688 9.500
v 14.250 11.688 9.500
v 16.375 11.688 9.500
v 16.375 12.500 9.500
v 15.250 11.500 9.500
v 15.750 11.500 9.500
v 15.750 11.688 9.500
v 15.250 11.688 9.500
v 17.375 11.688 9.500
v 17.375 12.500 9.500
v 16.250 11.500 9.500
v 16.750 11.500 9.500
v 16.750 11.688 9.500
v 16.250 11.688 9.500
v 18.375 11.688 9.500
v 18.375 12.500 9.500
v 17.250 11.500 9.500
v 17.750 11.500 9.500
v 17.750 11.688 9.500
v 17.250 11.688 9.500
v 18.500 11.688 9.500
v 18.500 12.500 9.500
v 18.250 11.500 9.500
v 18.500 11.500 9.500
v 18.250 11.688 9.500
v 14.625 11.688 9.500
v 14.625 12.500 9.500
v 15.625 11.688 9.500
v 15.625 12.500 9.500
v 16.625 11.688 9.500
v 16.625 12.500 9.500
v 17.625 11.688 9.500
v 17.625 12.500 9.500
v 13.500 11.688 6.500
v 13.500 11.500 6.500
v 13.500 11.500 9.250
v 13.500 11.688 9.250
v 13.625 11.688 7.625
v 14.375 11.688 7.625
v 13.500 11.500 7.625
v 13.500 11.688 7.625
v 15.625 11.688 7.625
v 18.375 11.688 7.625
v 18.250 11.500 7.625
v 18.250 11.688 7.625
v 13.500 14.500 11.499
v 18.500 14.500 11.499
v 18.500 15.375 11.499
v 13.500 15.375 11.499
v 13.500 15.375 7.500
v 18.500 15.375 7.500
v 18.500 15.375 6.500
v 13.500 15.375 6.500
v 13.500 15.375 8.500
v 15.500 15.375 8.500
v 15.500 15.375 7.500
v 16.500 15.375 8.500
v 16.500 15.375 7.500
v 18.500 15.375 8.500
v 13.500 15.375 9.500
v 18.500 15.375 9.500
v 13.500 15.375 10.500
v 16.500 15.375 10.500
v 16.500 15.375 9.500
v 17.500 15.375 10.500
v 17.500 15.375 9.500
v 18.500 15.375 10.500
v 13.500 15.375 11.500
v 18.500 15.375 11.500
v 16.500 11.688 11.500
v 16.500 11.688 6.500
v 16.500 12.500 6.500
v 16.500 12.500 11.500
v 16.500 11.500 6.750
v 16.500 11.500 6.500
v 16.500 11.688 6.750
v 16.500 11.500 7.625
v 16.500 11.500 7.250
v 16.500 11.688 7.250
v 16.500 11.688 7.625
v 16.500 11.500 7.750
v 16.500 11.688 7.750
v 16.500 11.500 8.625
v 16.500 11.500 8.250
v 16.500 11.688 8.250
v 16.500 11.688 8.625
v 16.500 11.500 8.750
v 16.500 11.688 8.750
v 16.500 11.500 9.625
v 16.500 11.500 9.250
v 16.500 11.688 9.250
v 16.500 11.688 9.625
v 16.500 11.500 9.750
v 16.500 11.688 9.750
v 16.500 11.500 10.625
v 16.500 11.500 10.250
v 16.500 11.688 10.250
v 16.500 11.688 10.625
v 16.500 11.500 10.750
v 16.500 11.688 10.750
v 16.500 11.500 11.500
v 16.500 11.500 11.250
v 16.500 11.688 11.250
v 13.501 14.500 6.500
v 13.501 14.500 11.500
v 13.501 15.375 11.500
v 13.501 15.375 6.500
v 13.501 9.500 21.500
v 13.501 9.500 22.500
v 13.501 9.895 22.500
v 13.501 10.015 21.500
v 10.501 9.500 17.500
v 10.501 9.500 18.500
v 10.501 9.655 18.500
v 10.501 9.535 17.500
v 10.501 9.500 21.500
v 10.501 9.500 22.500
v 10.501 9.535 22.500
v 10.501 9.655 21.500
v 13.625 11.500 6.625
v 14.500 11.500 6.625
v 14.375 11.500 6.625
v 13.625 11.500 7.375
v 14.500 11.500 7.500
v 14.500 11.500 7.375
v 14.375 11.500 7.375
v 15.500 11.500 6.625
v 15.500 11.500 7.500
v 15.500 11.500 7.375
v 15.625 11.500 6.625
v 16.500 11.500 6.625
v 15.625 11.500 7.375
v 16.500 11.500 7.500
v 16.500 11.500 7.375
v 17.500 11.500 6.625
v 17.500 11.500 7.500
v 17.500 11.500 7.375
v 18.250 11.500 6.500
v 18.375 11.500 6.625
v 18.375 11.500 7.375
v 13.625 11.500 7.625
v 14.375 11.500 7.625
v 13.750 11.500 8.500
v 13.500 11.500 8.500
v 13.625 11.500 8.375
v 14.500 11.500 8.500
v 14.250 11.500 8.500
v 14.500 11.500 8.375
v 14.375 11.500 8.375
v 14.750 11.500 8.500
v 15.500 11.500 8.500
v 15.250 11.500 8.500
v 15.500 11.500 8.375
v 15.625 11.500 7.625
v 15.750 11.500 8.500
v 15.625 11.500 8.375
v 16.500 11.500 8.500
v 16.250 11.500 8.500
v 16.500 11.500 8.375
v 16.750 11.500 8.500
v 17.500 11.500 8.500
v 17.250 11.500 8.500
v 17.500 11.500 8.375
v 18.375 11.500 7.625
v 17.750 11.500 8.500
v 18.500 11.500 8.500
v 18.250 11.500 8.500
v 18.375 11.500 8.375
v 13.625 11.500 8.625
v 14.375 11.500 8.625
v 13.625 11.500 9.375
v 13.625 11.500 9.250
v 14.500 11.500 9.500
v 14.500 11.500 9.375
v 14.375 11.500 9.375
v 14.375 11.500 9.250
v 15.500 11.500 9.500
v 15.500 11.500 9.375
v 15.625 11.500 8.625
v 15.625 11.500 9.375
v 15.625 11.500 9.250
v 16.500 11.500 9.500
v 16.500 11.500 9.375
v 17.500 11.500 9.500
v 17.500 11.500 9.375
v 18.375 11.500 8.625
v 18.375 11.500 9.375
v 18.375 11.500 9.250
v 13.625 11.500 9.625
v 14.375 11.500 9.625
v 13.625 11.500 10.375
v 14.500 11.500 10.500
v 14.500 11.500 10.375
v 14.375 11.500 10.375
v 15.500 11.500 10.500
v 15.500 11.500 10.375
v 15.625 11.500 9.625
v 15.625 11.500 10.375
v 16.500 11.500 10.500
v 16.500 11.500 10.375
v 17.500 11.500 10.500
v 17.500 11.500 10.375
v 18.375 11.500 9.625
v 18.375 11.500 10.375
v 13.625 11.500 10.625
v 14.375 11.500 10.625
v 13.625 11.500 11.375
v 14.500 11.500 11.375
v 14.375 11.500 11.375
v 15.500 11.500 11.375
v 15.625 11.500 10.625
v 15.625 11.500 11.375
v 16.500 11.500 11.375
v 17.500 11.500 11.375
v 18.375 11.500 10.625
v 18.375 11.500 11.375
v 13.625 11.688 11.500
v 13.625 11.688 6.500
v 13.625 11.688 9.250
v 14.375 11.688 6.500
v 13.625 11.688 7.500
v 15.625 11.688 11.500
v 15.625 11.688 6.500
v 18.375 11.688 6.500
v 14.375 11.688 8.500
v 13.625 11.688 8.500
v 15.375 11.688 8.500
v 14.625 11.688 8.500
v 16.375 11.688 8.500
v 15.625 11.688 8.500
v 17.375 11.688 8.500
v 16.625 11.688 8.500
v 18.375 11.688 8.500
v 17.625 11.688 8.500
v 13.625 11.688 9.500
v 13.625 11.688 10.500
v 18.250 11.688 6.500
v 17.625 12.438 7.375
v 18.375 12.438 7.375
v 18.375 12.438 6.625
v 17.625 12.438 6.625
v 14.625 12.438 8.375
v 15.375 12.438 8.375
v 15.375 12.438 7.625
v 14.625 12.438 7.625
v 17.625 12.438 8.375
v 18.375 12.438 8.375
v 18.375 12.438 7.625
v 17.625 12.438 7.625
v 13.625 12.438 9.375
v 14.375 12.438 9.375
v 14.375 12.438 8.625
v 13.625 12.438 8.625
v 15.625 12.438 9.375
v 16.375 12.438 9.375
v 16.375 12.438 8.625
v 15.625 12.438 8.625
v 17.625 12.438 9.375
v 18.375 12.438 9.375
v 18.375 12.438 8.625
v 17.625 12.438 8.625
v 14.625 12.438 10.375
v 15.375 12.438 10.375
v 15.375 12.438 9.625
v 14.625 12.438 9.625
v 13.625 12.438 11.375
v 14.375 12.438 11.375
v 14.375 12.438 10.625
v 13.625 12.438 10.625
v 16.625 12.438 11.375
v 17.375 12.438 11.375
v 17.375 12.438 10.625
v 16.625 12.438 10.625
v 11.499 9.500 18.500
v 11.499 9.500 17.500
v 11.499 9.535 17.500
v 11.499 9.655 18.500
v 11.499 9.500 19.500
v 11.499 9.895 19.500
v 18.375 11.688 9.250
v 15.625 11.688 9.250
v 14.375 11.688 9.250
v 13.625 11.750 7.375
v 14.375 11.750 7.375
v 14.375 11.750 6.625
v 13.625 11.750 6.625
v 14.625 11.750 7.375
v 15.375 11.750 7.375
v 15.375 11.750 6.625
v 14.625 11.750 6.625
v 15.625 11.750 7.375
v 16.375 11.750 7.375
v 16.375 11.750 6.625
v 15.625 11.750 6.625
v 16.625 11.750 7.375
v 17.375 11.750 7.375
v 17.375 11.750 6.625
v 16.625 11.750 6.625
v 17.625 11.750 7.375
v 18.375 11.750 7.375
v 18.375 11.750 6.625
v 17.625 11.750 6.625
v 13.625 11.750 8.375
v 14.375 11.750 8.375
v 14.375 11.750 7.625
v 13.625 11.750 7.625
v 14.625 11.750 8.375
v 15.375 11.750 8.375
v 15.375 11.750 7.625
v 14.625 11.750 7.625
v 15.625 11.750 8.375
v 16.375 11.750 8.375
v 16.375 11.750 7.625
v 15.625 11.750 7.625
v 16.625 11.750 8.375
v 17.375 11.750 8.375
v 17.375 11.750 7.625
v 16.625 11.750 7.625
v 17.625 11.750 8.375
v 18.375 11.750 8.375
v 18.375 11.750 7.625
v 17.625 11.750 7.625
v 13.625 11.750 9.375
v 14.375 11.750 9.375
v 14.375 11.750 8.625
v 13.625 11.750 8.625
v 14.625 11.750 9.375
v 15.375 11.750 9.375
v 15.375 11.750 8.625
v 14.625 11.750 8.625
v 15.625 11.750 9.375
v 16.375 11.750 9.375
v 16.375 11.750 8.625
v 15.625 11.750 8.625
v 16.625 11.750 9.375
v 17.375 11.750 9.375
v 17.375 11.750 8.625
v 16.625 11.750 8.625
v 17.625 11.750 9.375
v 18.375 11.750 9.375
v 18.375 11.750 8.625
v 17.625 11.750 8.625
v 13.625 11.750 10.375
v 14.375 11.750 10.375
v 14.375 11.750 9.625
v 13.625 11.750 9.625
v 14.625 11.750 10.375
v 15.375 11.750 10.375
v 15.375 11.750 9.625
v 14.625 11.750 9.625
v 15.625 11.750 10.375
v 16.375 11.750 10.375
v 16.375 11.750 9.625
v 15.625 11.750 9.625
v 16.625 11.750 10.375
v 17.375 11.750 10.375
v 17.375 11.750 9.625
v 16.625 11.750 9.625
v 17.625 11.750 10.375
v 18.375 11.750 10.375
v 18.375 11.750 9.625
v 17.625 11.750 9.625
v 13.625 11.750 11.375
v 14.375 11.750 11.375
v 14.375 11.750 10.625
v 13.625 11.750 10.625
v 14.625 11.750 11.375
v 15.375 11.750 11.375
v 15.375 11.750 10.625
v 14.625 11.750 10.625
v 15.625 11.750 11.375
v 16.375 11.750 11.375
v 16.375 11.750 10.625
v 15.625 11.750 10.625
v 16.625 11.750 11.375
v 17.375 11.750 11.375
v 17.375 11.750 10.625
v 16.625 11.750 10.625
v 17.625 11.750 11.375
v 18.375 11.750 11.375
v 18.375 11.750 10.625
v 17.625 11.750 10.625
v 13.500 11.688 8.500
v 14.375 12.500 8.500
v 13.500 12.500 8.500
v 15.375 12.500 8.500
v 13.750 11.688 8.500
v 14.750 11.688 8.500
v 14.250 11.688 8.500
v 16.375 12.500 8.500
v 15.750 11.688 8.500
v 15.250 11.688 8.500
v 17.375 12.500 8.500
v 16.750 11.688 8.500
v 16.250 11.688 8.500
v 18.375 12.500 8.500
v 17.750 11.688 8.500
v 17.250 11.688 8.500
v 18.500 11.688 8.500
v 18.500 12.500 8.500
v 18.250 11.688 8.500
v 14.625 12.500 8.500
v 15.625 12.500 8.500
v 16.625 12.500 8.500
v 17.625 12.500 8.500
v 16.500 10.500 15.501
v 15.500 10.500 15.501
v 15.500 10.535 15.501
v 16.500 10.535 15.501
v 10.500 9.500 18.501
v 9.500 9.500 18.501
v 9.500 9.535 18.501
v 10.500 9.655 18.501
v 19.500 8.500 16.500

usemtl minecraft_block-lava_flow

f 1645/1 1647/14 1648/12 1646/4
f 1653/1 1655/14 1656/12 1654/4

usemtl minecraft_block-cauldron_side

f 349/46 350/47 351/48 352/4
f 353/49 354/50 355/51 356/52
f 357/53 358/54 359/55 360/56
f 361/49 362/50 363/51 364/52
f 365/53 366/54 367/55 368/56
f 369/49 370/50 371/51 372/52
f 373/53 374/54 375/55 376/56
f 377/49 378/50 379/51 380/52
f 381/53 382/54 383/55 384/56
f 385/49 386/50 387/51 388/52
f 389/53 390/54 391/55 392/56
f 393/52 394/55 395/57 396/58
f 397/1 398/50 399/51 400/46
f 401/53 402/59 403/60 404/56
f 405/52 388/55 406/57 407/58
f 408/53 409/59 410/60 411/56
f 412/52 413/55 414/57 415/58
f 416/53 417/59 418/60 419/56
f 420/52 421/55 422/57 423/58
f 424/53 425/59 426/60 427/56
f 428/52 429/55 430/57 431/58
f 432/53 433/14 434/61 435/56
f 446/52 447/55 448/57 449/58
f 450/53 451/14 452/61 453/56
f 454/66 455/50 456/51 457/67
f 359/52 458/55 459/57 460/58
f 461/66 462/50 463/51 464/67
f 465/52 466/55 467/57 468/58
f 469/66 470/50 471/51 472/67
f 473/52 474/55 475/57 476/58
f 477/66 478/50 479/51 480/67
f 481/52 482/55 483/57 484/58
f 485/1 486/50 487/51 488/46
f 489/68 490/61 491/12 492/63
f 493/53 494/14 490/61 495/56
f 496/69 497/50 498/51 499/70
f 490/46 489/47 492/48 491/4
f 494/1 493/50 495/51 490/46
f 497/53 500/59 501/60 498/56
f 500/53 496/54 499/55 501/56
f 502/69 503/50 504/51 505/70
f 503/53 506/59 507/60 504/56
f 506/53 502/54 505/55 507/56
f 508/69 509/50 510/51 511/70
f 509/53 512/59 513/60 510/56
f 512/53 508/54 511/55 513/56
f 514/69 515/50 516/51 517/70
f 515/53 518/59 519/60 516/56
f 518/53 514/54 517/55 519/56
f 520/1 521/50 522/51 489/46
f 521/53 520/14 489/61 522/56
f 526/1 527/49 528/52 529/46
f 530/54 531/71 532/72 533/55
f 362/54 534/71 535/72 363/55
f 536/54 537/71 538/72 539/55
f 540/54 541/71 542/72 543/55
f 544/54 545/14 546/61 547/55
f 576/1 577/49 578/52 579/46
f 580/54 581/71 582/72 583/55
f 386/54 584/71 585/72 387/55
f 586/54 587/71 588/72 589/55
f 590/54 591/71 592/72 593/55
f 594/54 595/14 596/61 597/55
f 626/52 627/55 628/57 629/58
f 630/1 631/50 632/51 633/46
f 634/53 635/59 636/60 637/56
f 638/52 372/55 639/57 640/58
f 641/53 642/59 643/60 644/56
f 645/52 646/55 647/57 648/58
f 649/53 650/59 651/60 652/56
f 653/52 654/55 655/57 656/58
f 657/53 658/59 659/60 660/56
f 661/52 662/55 663/57 664/58
f 665/53 666/14 667/61 668/56
f 685/54 686/14 687/61 688/55
f 689/69 690/49 691/52 692/70
f 693/69 389/49 392/52 694/70
f 695/69 696/49 697/52 698/70
f 699/69 700/49 701/52 702/70
f 703/1 704/49 705/52 706/46
f 707/52 708/55 709/57 710/58
f 711/53 712/14 713/61 714/56
f 715/66 716/50 717/51 718/67
f 375/52 719/55 720/57 721/58
f 722/66 723/50 724/51 725/67
f 726/52 727/55 728/57 729/58
f 730/66 731/50 732/51 733/67
f 734/52 735/55 736/57 737/58
f 738/66 739/50 740/51 741/67
f 742/52 743/55 744/57 745/58
f 746/1 747/50 748/51 749/46
f 750/52 751/55 752/57 753/58
f 754/53 755/14 756/61 757/56
f 758/66 759/50 760/51 761/67
f 391/52 762/55 763/57 764/58
f 765/66 766/50 767/51 768/67
f 769/52 770/55 771/57 772/58
f 773/66 774/50 775/51 776/67
f 777/52 778/55 779/57 780/58
f 781/66 782/50 783/51 784/67
f 785/52 786/55 787/57 788/58
f 789/1 790/50 791/51 792/46
f 793/46 794/55 795/57 796/4
f 794/55 797/84 798/85 795/57
f 799/1 800/50 801/51 793/46
f 802/53 803/59 804/60 805/56
f 797/55 806/84 807/85 798/57
f 808/53 809/59 810/60 811/56
f 806/55 812/84 813/85 807/57
f 814/53 815/59 816/60 817/56
f 812/55 818/84 819/85 813/57
f 820/53 821/59 822/60 823/56
f 818/55 824/61 825/12 819/57
f 826/53 827/14 824/61 828/56
f 794/52 793/61 796/12 795/58
f 829/70 794/52 795/58 830/86
f 800/53 799/14 793/61 801/56
f 803/66 802/50 805/51 804/67
f 831/70 829/55 830/57 832/86
f 809/66 808/50 811/51 810/67
f 833/70 831/55 832/57 834/86
f 815/66 814/50 817/51 816/67
f 835/70 833/55 834/57 836/86
f 821/66 820/50 823/51 822/67
f 824/46 835/55 836/57 825/4
f 827/1 826/50 828/51 824/46
f 837/1 838/49 839/52 840/46
f 841/54 842/71 843/72 844/55
f 354/54 845/71 846/72 355/55
f 847/54 848/71 849/72 850/55
f 851/54 852/71 853/72 854/55
f 855/54 856/14 857/61 858/55
f 867/54 868/14 869/61 870/55
f 871/69 477/49 480/52 872/70
f 658/69 873/49 874/52 659/70
f 875/69 738/49 741/52 876/70
f 425/69 877/49 878/52 426/70
f 879/1 781/49 784/52 880/46
f 881/54 882/14 883/61 884/55
f 885/69 454/49 457/52 886/70
f 635/69 887/49 888/52 636/70
f 889/69 715/49 718/52 890/70
f 402/69 891/49 892/52 403/70
f 893/1 758/49 761/52 894/46
f 895/46 896/55 897/57 898/4
f 896/55 350/84 351/85 897/57
f 899/1 900/50 901/51 895/46
f 902/53 893/59 894/60 903/56
f 350/55 906/84 907/85 351/57
f 908/53 909/59 910/60 911/56
f 906/55 912/84 913/85 907/57
f 914/53 915/59 916/60 917/56
f 912/55 918/84 919/85 913/57
f 920/53 879/59 880/60 921/56
f 918/55 923/61 924/12 919/57
f 925/53 926/14 923/61 927/56
f 944/1 945/49 946/52 947/46
f 470/54 948/71 949/72 471/55
f 950/54 649/71 652/72 951/55
f 731/54 952/71 953/72 732/55
f 954/54 416/71 419/72 955/55
f 774/54 914/14 917/61 775/55
f 972/54 973/14 974/61 975/55
f 976/69 977/49 978/52 979/70
f 980/69 365/49 368/52 981/70
f 982/69 983/49 984/52 985/70
f 986/69 987/49 988/52 989/70
f 990/1 991/49 992/52 993/46
f 923/68 1003/61 1004/12 924/63
f 856/53 1005/14 1003/61 857/56
f 1006/69 1007/50 1008/51 1009/70
f 545/53 1006/54 1009/55 546/56
f 666/69 990/50 993/51 667/70
f 1011/53 666/54 667/55 1012/56
f 1013/69 1014/50 1015/51 1016/70
f 1017/53 1013/54 1016/55 1018/56
f 433/69 1019/50 1020/51 434/70
f 595/53 433/54 434/55 596/56
f 926/1 703/50 706/51 923/46
f 1025/1 1026/49 1027/52 1028/46
f 1029/54 1030/71 1031/72 1032/55
f 378/54 1033/71 1034/72 379/55
f 1035/54 1036/71 1037/72 1038/55
f 1039/54 1040/71 1041/72 1042/55
f 1043/54 1017/14 1018/61 1044/55
f 1050/68 1051/61 1052/12 1053/63
f 842/53 1054/54 1055/55 843/56
f 1056/49 1057/50 1058/51 458/52
f 531/53 1059/54 1060/55 532/56
f 1061/49 976/50 979/51 1062/52
f 1063/53 1064/54 638/55 1065/56
f 1066/49 1067/50 1068/51 719/52
f 1030/53 1069/54 1070/55 1031/56
f 1071/49 1072/50 1073/51 1074/52
f 581/53 1075/54 405/55 582/56
f 1076/49 689/50 692/51 762/52
f 1077/1 1078/49 1079/52 1080/46
f 478/54 1081/71 1082/72 479/55
f 1083/54 657/71 660/72 1084/55
f 739/54 1085/71 1086/72 740/55
f 1087/54 424/71 427/72 1088/55
f 782/54 920/14 921/61 783/55
f 1089/68 1090/61 1091/12 1092/63
f 848/53 1093/54 1094/55 849/56
f 1095/49 1096/50 1097/51 474/52
f 537/53 1098/54 1099/55 538/56
f 1100/49 982/50 985/51 1101/52
f 1102/53 1103/54 653/55 1104/56
f 1105/49 1106/50 1107/51 735/52
f 1036/53 1108/54 1109/55 1037/56
f 1110/49 1111/50 1112/51 1113/52
f 587/53 1114/54 420/55 588/56
f 1115/49 695/50 698/51 778/52
f 1120/46 912/47 913/48 1121/4
f 1122/49 851/50 854/51 1123/52
f 1124/53 1125/54 473/55 1126/56
f 1127/49 540/50 543/51 1128/52
f 987/53 1129/54 1130/55 988/56
f 1131/49 1132/50 1133/51 654/52
f 1134/53 1135/54 734/55 1136/56
f 1137/49 1039/50 1042/51 1138/52
f 1139/53 1140/54 1141/55 1142/56
f 1143/49 590/50 593/51 421/52
f 700/53 1144/54 777/55 701/56
f 1149/68 1150/61 1151/12 1152/63
f 1153/53 1154/14 1150/61 1155/56
f 1156/69 1157/50 1158/51 1159/70
f 1150/46 1149/47 1152/48 1151/4
f 1154/1 1153/50 1155/51 1150/46
f 1157/53 1160/59 1161/60 1158/56
f 1160/53 1156/54 1159/55 1161/56
f 1162/69 1163/50 1164/51 1165/70
f 1163/53 1166/59 1167/60 1164/56
f 1166/53 1162/54 1165/55 1167/56
f 1168/69 1169/50 1170/51 1171/70
f 1169/53 1172/59 1173/60 1170/56
f 1172/53 1168/54 1171/55 1173/56
f 1174/69 1175/50 1176/51 1177/70
f 1175/53 1178/59 1179/60 1176/56
f 1178/53 1174/54 1177/55 1179/56
f 1180/1 1181/50 1182/51 1149/46
f 1181/53 1180/14 1149/61 1182/56
f 1193/46 1194/55 1195/57 1196/4
f 1194/55 1197/84 1198/85 1195/57
f 1199/1 1200/50 1201/51 1193/46
f 1202/53 1203/59 1204/60 1205/56
f 1197/55 1206/84 1207/85 1198/57
f 1208/53 1209/59 1210/60 1211/56
f 1206/55 1212/84 1213/85 1207/57
f 1214/53 1215/59 1216/60 1217/56
f 1212/55 1218/84 1219/85 1213/57
f 1220/53 1221/59 1222/60 1223/56
f 1218/55 1224/61 1225/12 1219/57
f 1226/53 1227/14 1224/61 1228/56
f 1194/52 1193/61 1196/12 1195/58
f 1229/70 1194/52 1195/58 1230/86
f 1200/53 1199/14 1193/61 1201/56
f 1203/66 1202/50 1205/51 1204/67
f 1231/70 1229/55 1230/57 1232/86
f 1209/66 1208/50 1211/51 1210/67
f 1233/70 1231/55 1232/57 1234/86
f 1215/66 1214/50 1217/51 1216/67
f 1235/70 1233/55 1234/57 1236/86
f 1221/66 1220/50 1223/51 1222/67
f 1224/46 1235/55 1236/57 1225/4
f 1227/1 1226/50 1228/51 1224/46
f 1237/52 1238/55 1239/57 1240/58
f 1241/1 1242/50 1243/51 1244/46
f 1245/53 881/59 884/60 1246/56
f 1055/52 356/55 1247/57 1248/58
f 1249/53 1250/59 1251/60 1252/56
f 1253/52 1254/55 1255/57 1256/58
f 945/53 1257/59 1258/60 946/56
f 1094/52 1123/55 1259/57 1260/58
f 1078/53 867/59 870/60 1079/56
f 1261/52 1262/55 1263/57 1264/58
f 1265/53 1266/14 1267/61 1268/56
f 1250/54 1269/14 1270/61 1251/55
f 1271/69 461/49 464/52 1272/70
f 642/69 1273/49 1274/52 643/70
f 1275/69 722/49 725/52 1276/70
f 409/69 1277/49 1278/52 410/70
f 909/1 765/49 768/52 910/46
f 1304/68 1305/61 1306/12 1307/63
f 1308/53 1309/14 1305/61 1310/56
f 1311/69 1312/50 1313/51 1314/70
f 1305/46 1304/47 1307/48 1306/4
f 1309/1 1308/50 1310/51 1305/46
f 1312/53 1315/59 1316/60 1313/56
f 1315/53 1311/54 1314/55 1316/56
f 1317/69 1318/50 1319/51 1320/70
f 1318/53 1321/59 1322/60 1319/56
f 1321/53 1317/54 1320/55 1322/56
f 1323/69 1324/50 1325/51 1326/70
f 1324/53 1327/59 1328/60 1325/56
f 1327/53 1323/54 1326/55 1328/56
f 1329/69 1330/50 1331/51 1332/70
f 1330/53 1333/59 1334/60 1331/56
f 1333/53 1329/54 1332/55 1334/56
f 1335/1 1336/50 1337/51 1304/46
f 1336/53 1335/14 1304/61 1337/56
f 1339/54 1340/14 1341/61 1342/55
f 1072/69 1343/49 1344/52 1073/70
f 1345/69 381/49 384/52 1346/70
f 1111/69 1347/49 1348/52 1112/70
f 1349/69 1139/49 1142/52 1350/70
f 1019/1 1351/49 1352/52 1020/46
f 1353/68 1354/61 1355/12 1356/63
f 852/53 1357/54 1261/55 853/56
f 1358/49 1359/50 1360/51 482/52
f 541/53 1361/54 1362/55 542/56
f 1363/49 986/50 989/51 1364/52
f 1365/53 1366/54 661/55 1367/56
f 1368/49 1369/50 1370/51 743/52
f 1040/53 1371/54 1372/55 1041/56
f 1373/49 1349/50 1350/51 1374/52
f 591/53 1375/54 428/55 592/56
f 1376/49 699/50 702/51 786/52
f 1257/54 1379/14 1380/61 1258/55
f 1381/69 469/49 472/52 1382/70
f 650/69 1383/49 1384/52 651/70
f 1385/69 730/49 733/52 1386/70
f 417/69 1387/49 1388/52 418/70
f 915/1 773/49 776/52 916/46
f 1391/52 1392/55 1393/57 1394/58
f 1395/1 1396/50 1397/51 1398/46
f 1399/53 889/59 890/60 1400/56
f 1070/52 380/55 1401/57 1402/58
f 1403/53 1275/59 1276/60 1404/56
f 1405/52 1406/55 1407/57 1408/58
f 952/53 1385/59 1386/60 953/56
f 1109/52 1138/55 1409/57 1410/58
f 1085/53 875/59 876/60 1086/56
f 1372/52 1411/55 1412/57 1413/58
f 1414/53 1013/14 1016/61 1415/56
f 1242/54 1454/14 1455/61 1243/55
f 1456/69 450/49 453/52 1457/70
f 631/69 1458/49 1459/52 632/70
f 1396/69 711/49 714/52 1397/70
f 398/69 1460/49 1461/52 399/70
f 900/1 754/49 757/52 901/46
f 1462/52 1463/55 1435/57 1434/58
f 1458/53 1464/14 1465/61 1459/56
f 887/66 1466/50 1467/51 888/67
f 367/52 1062/55 1437/57 1436/58
f 1273/66 1468/50 1469/51 1274/67
f 1470/52 1471/55 1439/57 1438/58
f 1383/66 950/50 951/51 1384/67
f 1130/52 1101/55 1441/57 1440/58
f 873/66 1083/50 1084/51 874/67
f 1472/52 1364/55 1443/57 1442/58
f 1473/1 1474/50 1475/51 1476/46
f 1477/46 906/47 907/48 1426/4
f 1478/49 847/50 850/51 1254/52
f 1479/53 1480/54 465/55 1481/56
f 1482/49 536/50 539/51 1483/52
f 983/53 1484/54 1470/55 984/56
f 1485/49 1486/50 1487/51 646/52
f 1488/53 1489/54 726/55 1490/56
f 1491/49 1035/50 1038/51 1406/52
f 1347/53 1492/54 1493/55 1348/56
f 1494/49 586/50 589/51 413/52
f 696/53 1495/54 769/55 697/56
f 1496/1 1249/49 1252/52 1497/46
f 462/54 1498/71 1499/72 463/55
f 1468/54 641/71 644/72 1469/55
f 723/54 1403/71 1404/72 724/55
f 1500/54 408/71 411/72 1501/55
f 766/54 908/14 911/61 767/55
f 1502/52 1503/55 1445/57 1444/58
f 1460/53 1504/14 1505/61 1461/56
f 891/66 1506/50 1507/51 892/67
f 383/52 1074/55 1447/57 1446/58
f 1277/66 1500/50 1501/51 1278/67
f 1493/52 1508/55 1449/57 1448/58
f 1387/66 954/50 955/51 1388/67
f 1141/52 1113/55 1451/57 1450/58
f 877/66 1087/50 1088/51 878/67
f 1509/52 1374/55 1453/57 1452/58
f 1510/1 1511/50 1512/51 1513/46
f 1532/54 1533/14 1534/61 1535/55
f 1057/69 1536/49 1537/52 1058/70
f 1538/69 357/49 360/52 1539/70
f 1096/69 1479/49 1481/52 1097/70
f 1359/69 1124/49 1126/52 1360/70
f 1007/1 1540/49 1541/52 1008/46
f 1542/1 1245/49 1246/52 1543/46
f 455/54 1544/71 1545/72 456/55
f 1466/54 634/71 637/72 1467/55
f 716/54 1399/71 1400/72 717/55
f 1506/54 401/71 404/72 1507/55
f 759/54 902/14 903/61 760/55
f 1570/1 1571/49 1572/52 1573/46
f 1574/54 1063/71 1065/72 1575/55
f 370/54 1576/71 1577/72 371/55
f 1486/54 1102/71 1104/72 1487/55
f 1132/54 1365/71 1367/72 1133/55
f 1578/54 1011/14 1012/61 1579/55
f 1580/46 1581/55 1582/57 1583/4
f 1581/55 1584/84 1585/85 1582/57
f 1586/1 1587/50 1588/51 1580/46
f 1589/53 1590/59 1591/60 1592/56
f 1584/55 1593/84 1594/85 1585/57
f 1595/53 1596/59 1597/60 1598/56
f 1593/55 1599/84 1600/85 1594/57
f 1601/53 1602/59 1603/60 1604/56
f 1599/55 1605/84 1606/85 1600/57
f 1607/53 1608/59 1609/60 1610/56
f 1605/55 1611/61 1612/12 1606/57
f 1613/53 1614/14 1611/61 1615/56
f 1581/52 1580/61 1583/12 1582/58
f 1616/70 1581/52 1582/58 1617/86
f 1587/53 1586/14 1580/61 1588/56
f 1590/66 1589/50 1592/51 1591/67
f 1618/70 1616/55 1617/57 1619/86
f 1596/66 1595/50 1598/51 1597/67
f 1620/70 1618/55 1619/57 1621/86
f 1602/66 1601/50 1604/51 1603/67
f 1622/70 1620/55 1621/57 1623/86
f 1608/66 1607/50 1610/51 1609/67
f 1611/46 1622/55 1623/57 1612/4
f 1614/1 1613/50 1615/51 1611/46
f 1624/46 895/47 898/48 1418/4
f 1625/1 837/50 840/51 1624/46
f 1533/53 526/59 529/60 1534/56
f 973/53 1570/59 1573/60 974/56
f 1626/53 1025/59 1028/60 1627/56
f 1340/53 576/59 579/60 1341/56
f 686/53 899/14 895/61 687/56
f 1628/52 1629/55 1421/57 1420/58
f 1630/1 1456/50 1457/51 1631/46
f 1544/53 885/59 886/60 1545/56
f 1060/52 364/55 1425/57 1424/58
f 1498/53 1271/59 1272/60 1499/56
f 1632/52 1483/55 1428/57 1427/58
f 948/53 1381/59 1382/60 949/56
f 1099/52 1128/55 1430/57 1429/58
f 1081/53 871/59 872/60 1082/56
f 1362/52 1633/55 1433/57 1432/58
f 1634/53 1006/14 1009/61 1635/56
f 1660/68 1661/61 1662/12 1663/63
f 1664/53 1665/14 1661/61 1666/56
f 1667/69 1668/50 1669/51 1670/70
f 1661/46 1660/47 1663/48 1662/4
f 1665/1 1664/50 1666/51 1661/46
f 1668/53 1671/59 1672/60 1669/56
f 1671/53 1667/54 1670/55 1672/56
f 1673/69 1674/50 1675/51 1676/70
f 1674/53 1677/59 1678/60 1675/56
f 1677/53 1673/54 1676/55 1678/56
f 1679/69 1680/50 1681/51 1682/70
f 1680/53 1683/59 1684/60 1681/56
f 1683/53 1679/54 1682/55 1684/56
f 1685/69 1686/50 1687/51 1688/70
f 1686/53 1689/59 1690/60 1687/56
f 1689/53 1685/54 1688/55 1690/56
f 1691/1 1692/50 1693/51 1660/46
f 1692/53 1691/14 1660/61 1693/56
f 1807/68 1808/61 1417/12 1416/63
f 838/53 1710/54 1237/55 839/56
f 1713/49 1532/50 1535/51 447/52
f 527/53 1731/54 1628/55 528/56
f 1735/49 972/50 975/51 1463/52
f 1571/53 1759/54 626/55 1572/56
f 1761/49 1762/50 1809/51 708/52
f 1026/53 1779/54 1391/55 1027/56
f 1781/49 1339/50 1342/51 1503/52
f 577/53 1795/54 393/55 578/56
f 1797/49 685/50 688/51 751/52
f 1810/52 1624/61 1418/12 1419/58
f 1051/70 1810/52 1419/58 1052/86
f 1454/53 1625/14 1624/61 1455/56
f 882/66 1542/50 1543/51 883/67
f 1813/70 1051/55 1052/57 1423/86
f 1269/66 1496/50 1497/51 1270/67
f 1090/70 1813/55 1423/57 1091/86
f 1379/66 944/50 947/51 1380/67
f 1354/70 1090/55 1091/57 1355/86
f 868/66 1077/50 1080/51 869/67
f 1003/46 1354/55 1355/57 1004/4
f 1005/1 1728/50 1827/51 1003/46
f 1814/46 918/47 919/48 1431/4
f 1729/49 855/50 858/51 1262/52
f 1540/53 1730/54 481/55 1541/56
f 1754/49 544/50 547/51 1633/52
f 991/53 1758/54 1472/55 992/56
f 1776/49 1578/50 1579/51 662/52
f 1778/53 1777/54 742/55 1870/56
f 1793/49 1043/50 1044/51 1411/52
f 1351/53 1794/54 1509/55 1352/56
f 1805/49 594/50 597/51 429/52
f 704/53 1806/54 785/55 705/56
f 1812/68 1813/61 1423/12 1422/63
f 845/53 1720/54 1253/55 846/56
f 1722/49 1538/50 1539/51 466/52
f 534/53 1744/54 1632/55 535/56
f 1746/49 980/50 981/51 1471/52
f 1576/53 1769/54 645/55 1577/56
f 1770/49 1771/50 1871/51 727/52
f 1033/53 1787/54 1405/55 1034/56
f 1788/49 1345/50 1346/51 1508/52
f 584/53 1801/54 412/55 585/56
f 1802/49 693/50 694/51 770/52
f 1762/54 1626/14 1627/61 1809/55
f 1067/69 1766/49 1872/52 1068/70
f 1771/69 373/49 376/52 1871/70
f 1106/69 1488/49 1490/52 1107/70
f 1369/69 1134/49 1136/52 1370/70
f 1014/1 1778/49 1870/52 1015/46
f 1973/46 1815/55 1974/57 1975/4
f 1815/55 1817/84 1976/85 1974/57
f 1734/1 1733/50 1977/51 1973/46
f 1737/53 1740/59 1978/60 1979/56
f 1817/55 1819/84 1980/85 1976/57
f 1742/53 1745/59 1981/60 1982/56
f 1819/55 1821/84 1983/85 1980/57
f 1748/53 1750/59 1984/60 1985/56
f 1821/55 1823/84 1986/85 1983/57
f 1752/53 1755/59 1987/60 1988/56
f 1823/55 1989/61 1990/12 1986/57
f 1757/53 1756/14 1989/61 1991/56
f 1815/52 1973/61 1975/12 1974/58
f 1818/70 1815/52 1974/58 1992/86
f 1733/53 1734/14 1973/61 1977/56
f 1740/66 1737/50 1979/51 1978/67
f 1820/70 1818/55 1992/57 1993/86
f 1745/66 1742/50 1982/51 1981/67
f 1822/70 1820/55 1993/57 1994/86
f 1750/66 1748/50 1985/51 1984/67
f 1824/70 1822/55 1994/57 1995/86
f 1755/66 1752/50 1988/51 1987/67
f 1989/46 1824/55 1995/57 1990/4
f 1756/1 1757/50 1991/51 1989/46
f 1728/1 1265/49 1268/52 1827/46
f 486/54 1634/71 1635/72 487/55
f 1474/54 665/71 668/72 1475/55
f 747/54 1414/71 1415/72 748/55
f 1511/54 432/71 435/72 1512/55
f 790/54 925/14 927/61 791/55
f 1810/46 896/47 897/48 1419/4
f 1712/49 841/50 844/51 1238/52
f 1536/53 1716/54 446/55 1537/56
f 1732/49 530/50 533/51 1629/52
f 977/53 1739/54 1462/55 978/56
f 1760/49 1574/50 1575/51 627/52
f 1766/53 1765/54 707/55 1872/56
f 1780/49 1029/50 1032/51 1392/52
f 1343/53 1784/54 1502/55 1344/56
f 1796/49 580/50 583/51 394/52
f 690/53 1799/54 750/55 691/56

usemtl minecraft_block-cauldron_top

f 898/73 1416/98 1417/58 1418/4
f 897/99 1053/100 1052/101 1419/57
f 1240/102 1239/103 1419/57 1417/58
f 1420/104 1421/105 449/106 448/107
f 351/99 1422/100 1423/101 352/57
f 1248/102 1247/103 352/57 1052/58
f 1424/104 1425/105 460/106 459/107
f 907/99 1092/100 1091/101 1426/57
f 1256/102 1255/103 1426/57 1423/58
f 1427/104 1428/105 468/106 467/107
f 913/99 1356/100 1355/101 1121/57
f 1260/102 1259/103 1121/57 1091/58
f 1429/104 1430/105 476/106 475/107
f 919/99 924/94 1004/12 1431/57
f 1264/102 1263/103 1431/57 1355/58
f 1432/104 1433/105 484/106 483/107
f 629/104 628/105 1434/106 1435/107
f 640/104 639/105 1436/106 1437/107
f 648/104 647/105 1438/106 1439/107
f 656/104 655/105 1440/106 1441/107
f 664/104 663/105 1442/106 1443/107
f 1394/104 1393/105 710/106 709/107
f 1402/104 1401/105 721/106 720/107
f 1408/104 1407/105 729/106 728/107
f 1410/104 1409/105 737/106 736/107
f 1413/104 1412/105 745/106 744/107
f 396/104 395/105 1444/106 1445/107
f 407/104 406/105 1446/106 1447/107
f 415/104 414/105 1448/106 1449/107
f 423/104 422/105 1450/106 1451/107
f 431/104 430/105 1452/106 1453/107
f 1416/49 897/54 753/106 752/107
f 1053/49 351/54 764/106 763/107
f 1422/49 907/54 772/106 771/107
f 1092/49 913/54 780/106 779/107
f 1356/49 919/54 788/106 787/107

usemtl minecraft_block-grass_block_side

f 25/1 26/14 27/12 28/4
f 26/1 29/14 30/12 27/4
f 29/1 31/14 35/12 30/4
f 31/1 25/14 28/12 35/4
f 936/1 938/44 939/45 438/4
f 938/1 1389/14 1390/12 939/4
f 1389/38 2004/14 443/12 1390/39

usemtl minecraft_block-water_still

f 264/1 265/14 266/12 267/4
f 268/1 269/14 264/12 270/4
f 275/1 276/14 277/12 278/4
f 345/1 346/14 347/12 348/4
f 267/1 260/44 263/45 345/4
f 994/14 995/1 996/4 997/83
f 1001/14 998/1 1000/90 1002/83
f 1189/1 1190/14 1191/83 1192/90
f 1279/1 1280/14 1281/12 1282/90
f 1281/1 1283/14 1284/83 1285/90
f 1290/14 1291/1 1292/90 1293/83
f 292/1 1377/44 272/45 1378/4
f 1514/1 1515/14 1516/83 1517/90

usemtl minecraft_block-cauldron_bottom

f 1242/1 1241/50 1625/116 1454/117
f 838/117 837/107 1241/118 1710/119
f 1711/53 1245/14 1542/120 1154/121
f 1153/106 841/120 1712/122 1711/123
f 800/90 799/124 451/125 450/4
f 1713/126 451/127 1533/102 1532/90
f 1714/128 802/83 455/12 1715/129
f 1715/130 1716/131 1536/83 1157/103
f 881/1 1711/50 1154/116 882/117
f 842/117 1153/107 1711/118 1054/119
f 1717/53 1249/14 1496/120 494/121
f 493/106 354/120 353/122 1717/123
f 803/90 1714/124 1715/125 454/4
f 1056/126 1715/127 1157/102 1057/90
f 1718/128 808/83 462/12 1719/129
f 1719/130 358/131 357/83 497/103
f 1250/1 1717/50 494/116 1269/117
f 845/117 493/107 1717/118 1720/119
f 1721/53 945/14 944/120 1665/121
f 1664/106 847/120 1478/122 1721/123
f 809/90 1718/124 1719/125 461/4
f 1722/126 1719/127 497/102 1538/90
f 1723/128 814/83 470/12 1724/129
f 1724/130 1480/131 1479/83 1668/103
f 1257/1 1721/50 1665/116 1379/117
f 848/117 1664/107 1721/118 1093/119
f 1725/53 1078/14 1077/120 1309/121
f 1308/106 851/120 1122/122 1725/123
f 815/90 1723/124 1724/125 469/4
f 1095/126 1724/127 1668/102 1096/90
f 1726/128 820/83 478/12 1727/129
f 1727/130 1125/131 1124/83 1312/103
f 867/1 1725/50 1309/116 868/117
f 852/117 1308/107 1725/118 1357/119
f 1266/53 1265/14 1728/120 1005/121
f 856/106 855/120 1729/122 1266/123
f 821/90 1726/124 1727/125 477/4
f 1358/126 1727/127 1312/102 1359/90
f 827/128 826/83 486/12 485/129
f 485/130 1730/131 1540/83 1007/103
f 1456/1 1630/50 799/116 800/117
f 527/117 526/107 1630/118 1731/119
f 1156/53 1544/14 802/120 1714/121
f 1160/106 530/120 1732/122 1156/123
f 1733/90 1734/124 1464/125 1458/4
f 1735/126 1464/127 973/102 972/90
f 1736/128 1737/83 1466/12 1738/129
f 1738/130 1739/131 977/83 1163/103
f 885/1 1156/50 1714/116 803/117
f 531/117 1160/107 1156/118 1059/119
f 496/53 1498/14 808/120 1718/121
f 500/106 362/120 361/122 496/123
f 1740/90 1736/124 1738/125 887/4
f 1061/126 1738/127 1163/102 976/90
f 1741/128 1742/83 1468/12 1743/129
f 1743/130 366/131 365/83 503/103
f 1271/1 496/50 1718/116 809/117
f 534/117 500/107 496/118 1744/119
f 1667/53 948/14 814/120 1723/121
f 1671/106 536/120 1482/122 1667/123
f 1745/90 1741/124 1743/125 1273/4
f 1746/126 1743/127 503/102 980/90
f 1747/128 1748/83 950/12 1749/129
f 1749/130 1484/131 983/83 1674/103
f 1381/1 1667/50 1723/116 815/117
f 537/117 1671/107 1667/118 1098/119
f 1311/53 1081/14 820/120 1726/121
f 1315/106 540/120 1127/122 1311/123
f 1750/90 1747/124 1749/125 1383/4
f 1100/126 1749/127 1674/102 982/90
f 1751/128 1752/83 1083/12 1753/129
f 1753/130 1129/131 987/83 1318/103
f 871/1 1311/50 1726/116 821/117
f 541/117 1315/107 1311/118 1361/119
f 1006/53 1634/14 826/120 827/121
f 545/106 544/120 1754/122 1006/123
f 1755/90 1751/124 1753/125 873/4
f 1363/126 1753/127 1318/102 986/90
f 1756/128 1757/83 1474/12 1473/129
f 1473/130 1758/131 991/83 990/103
f 631/1 630/50 1734/116 1733/117
f 1571/117 1570/107 630/118 1759/119
f 1162/53 634/14 1737/120 1736/121
f 1166/106 1574/120 1760/122 1162/123
f 1587/90 1586/124 712/125 711/4
f 1761/126 712/127 1626/102 1762/90
f 1763/128 1589/83 716/12 1764/129
f 1764/130 1765/131 1766/83 1169/103
f 635/1 1162/50 1736/116 1740/117
f 1063/117 1166/107 1162/118 1064/119
f 502/53 641/14 1742/120 1741/121
f 506/106 370/120 369/122 502/123
f 1590/90 1763/124 1764/125 715/4
f 1066/126 1764/127 1169/102 1067/90
f 1767/128 1595/83 723/12 1768/129
f 1768/130 374/131 373/83 509/103
f 642/1 502/50 1741/116 1745/117
f 1576/117 506/107 502/118 1769/119
f 1673/53 649/14 1748/120 1747/121
f 1677/106 1486/120 1485/122 1673/123
f 1596/90 1767/124 1768/125 722/4
f 1770/126 1768/127 509/102 1771/90
f 1772/128 1601/83 731/12 1773/129
f 1773/130 1489/131 1488/83 1680/103
f 650/1 1673/50 1747/116 1750/117
f 1102/117 1677/107 1673/118 1103/119
f 1317/53 657/14 1752/120 1751/121
f 1321/106 1132/120 1131/122 1317/123
f 1602/90 1772/124 1773/125 730/4
f 1105/126 1773/127 1680/102 1106/90
f 1774/128 1607/83 739/12 1775/129
f 1775/130 1135/131 1134/83 1324/103
f 658/1 1317/50 1751/116 1755/117
f 1365/117 1321/107 1317/118 1366/119
f 666/53 665/14 1757/120 1756/121
f 1011/106 1578/120 1776/122 666/123
f 1608/90 1774/124 1775/125 738/4
f 1368/126 1775/127 1324/102 1369/90
f 1614/128 1613/83 747/12 746/129
f 746/130 1777/131 1778/83 1014/103
f 1396/1 1395/50 1586/116 1587/117
f 1026/117 1025/107 1395/118 1779/119
f 1168/53 1399/14 1589/120 1763/121
f 1172/106 1029/120 1780/122 1168/123
f 1200/90 1199/124 1504/125 1460/4
f 1781/126 1504/127 1340/102 1339/90
f 1782/128 1202/83 1506/12 1783/129
f 1783/130 1784/131 1343/83 1175/103
f 889/1 1168/50 1763/116 1590/117
f 1030/117 1172/107 1168/118 1069/119
f 508/53 1403/14 1595/120 1767/121
f 512/106 378/120 377/122 508/123
f 1203/90 1782/124 1783/125 891/4
f 1071/126 1783/127 1175/102 1072/90
f 1785/128 1208/83 1500/12 1786/129
f 1786/130 382/131 381/83 515/103
f 1275/1 508/50 1767/116 1596/117
f 1033/117 512/107 508/118 1787/119
f 1679/53 952/14 1601/120 1772/121
f 1683/106 1035/120 1491/122 1679/123
f 1209/90 1785/124 1786/125 1277/4
f 1788/126 1786/127 515/102 1345/90
f 1789/128 1214/83 954/12 1790/129
f 1790/130 1492/131 1347/83 1686/103
f 1385/1 1679/50 1772/116 1602/117
f 1036/117 1683/107 1679/118 1108/119
f 1323/53 1085/14 1607/120 1774/121
f 1327/106 1039/120 1137/122 1323/123
f 1215/90 1789/124 1790/125 1387/4
f 1110/126 1790/127 1686/102 1111/90
f 1791/128 1220/83 1087/12 1792/129
f 1792/130 1140/131 1139/83 1330/103
f 875/1 1323/50 1774/116 1608/117
f 1040/117 1327/107 1323/118 1371/119
f 1013/53 1414/14 1613/120 1614/121
f 1017/106 1043/120 1793/122 1013/123
f 1221/90 1791/124 1792/125 877/4
f 1373/126 1792/127 1330/102 1349/90
f 1227/128 1226/83 1511/12 1510/129
f 1510/130 1794/131 1351/83 1019/103
f 398/1 397/50 1199/116 1200/117
f 577/117 576/107 397/118 1795/119
f 1174/53 401/14 1202/120 1782/121
f 1178/106 580/120 1796/122 1174/123
f 900/90 899/124 755/125 754/4
f 1797/126 755/127 686/102 685/90
f 1180/128 902/83 759/12 1798/129
f 1798/130 1799/131 690/83 1181/103
f 402/1 1174/50 1782/116 1203/117
f 581/117 1178/107 1174/118 1075/119
f 514/53 408/14 1208/120 1785/121
f 518/106 386/120 385/122 514/123
f 893/90 1180/124 1798/125 758/4
f 1076/126 1798/127 1181/102 689/90
f 520/128 908/83 766/12 1800/129
f 1800/130 390/131 389/83 521/103
f 409/1 514/50 1785/116 1209/117
f 584/117 518/107 514/118 1801/119
f 1685/53 416/14 1214/120 1789/121
f 1689/106 586/120 1494/122 1685/123
f 909/90 520/124 1800/125 765/4
f 1802/126 1800/127 521/102 693/90
f 1691/128 914/83 774/12 1803/129
f 1803/130 1495/131 696/83 1692/103
f 417/1 1685/50 1789/116 1215/117
f 587/117 1689/107 1685/118 1114/119
f 1329/53 424/14 1220/120 1791/121
f 1333/106 590/120 1143/122 1329/123
f 915/90 1691/124 1803/125 773/4
f 1115/126 1803/127 1692/102 695/90
f 1335/128 920/83 782/12 1804/129
f 1804/130 1144/131 700/83 1336/103
f 425/1 1329/50 1791/116 1221/117
f 591/117 1333/107 1329/118 1375/119
f 433/53 432/14 1226/120 1227/121
f 595/106 594/120 1805/122 433/123
f 879/90 1335/124 1804/125 781/4
f 1376/126 1804/127 1336/102 699/90
f 926/128 925/83 790/12 789/129
f 789/130 1806/131 704/83 703/103

usemtl minecraft_block-dirt

f 935/1 936/14 438/12 937/4
f 940/1 941/14 942/12 943/4
f 1299/1 1300/14 1301/12 1302/4
f 1300/1 940/14 943/12 1301/4
f 1338/1 1548/14 1549/12 922/4
f 1551/1 1552/14 1553/12 524/4
f 1302/1 1301/14 1556/12 1552/4
f 523/1 942/14 1302/12 1555/4
f 1184/1 1558/44 942/45 934/4
f 963/1 962/111 1024/112 1184/4
f 1565/1 1567/14 1568/12 1566/4
f 941/1 1299/14 1302/12 942/4
f 941/1 940/14 1300/12 1299/4
f 2004/1 1023/14 1024/12 443/4

usemtl minecraft_block-smooth_stone

f 66/1 67/34 68/35 69/4
f 70/36 71/37 72/12 73/4
f 74/1 75/14 66/12 69/4
f 76/36 77/37 78/12 79/4
f 76/38 79/14 72/12 71/39
f 80/1 81/14 68/12 67/4
f 81/40 74/14 69/12 68/41
f 79/1 78/14 73/12 72/4
f 78/1 77/44 70/45 73/4
f 436/62 80/14 67/12 437/63
f 438/64 439/14 440/12 441/65
f 442/38 443/14 444/12 445/39
f 523/64 524/14 525/12 264/65
f 548/73 437/74 67/35 66/4
f 549/1 550/75 551/48 548/4
f 552/36 553/76 525/43 549/4
f 554/1 555/42 440/43 556/4
f 557/1 558/14 555/12 559/4
f 560/1 561/14 562/12 552/4
f 563/1 264/14 553/12 564/4
f 565/1 441/44 558/45 566/4
f 278/1 567/44 568/45 265/4
f 569/1 570/14 268/12 571/4
f 572/1 573/14 444/12 567/4
f 574/1 445/34 573/35 575/4
f 598/73 599/77 600/48 601/4
f 904/1 905/75 599/48 598/4
f 922/1 436/44 437/45 551/4
f 932/1 933/14 561/12 560/4
f 934/1 523/14 264/12 563/4
f 937/1 438/14 441/12 568/4
f 943/1 942/14 265/12 565/4
f 960/1 961/14 575/12 569/4
f 962/88 963/14 570/12 572/89
f 905/62 1010/14 600/12 599/63
f 1021/1 1022/14 557/12 559/4
f 1023/1 935/14 568/91 567/92
f 1024/1 962/14 572/12 567/4
f 905/93 904/94 1049/12 1010/63
f 1183/1 934/14 563/12 564/4
f 963/1 1184/14 268/12 570/4
f 1298/1 1183/14 564/12 562/4
f 1022/1 1301/14 566/12 557/4
f 1303/1 442/34 445/35 574/4
f 1338/1 922/14 551/12 550/4
f 1301/1 943/14 565/12 566/4
f 1555/1 1302/14 1552/12 1551/4
f 1301/1 1022/14 1021/12 1556/4
f 1049/1 904/75 598/48 601/4
f 933/1 1298/14 562/12 561/4
f 1561/1 960/14 569/12 571/4
f 1552/1 1021/44 559/45 554/4
f 1553/1 1552/14 554/12 556/4
f 942/1 1558/14 278/12 265/4
f 77/38 1049/14 601/12 70/39
f 1010/38 76/14 71/12 600/39
f 524/1 1553/14 556/12 525/4
f 439/38 1338/14 550/12 440/39
f 75/1 932/132 560/133 66/4
f 961/1 1303/14 574/12 575/4
f 1558/1 1024/44 567/45 278/4
f 1184/1 1561/14 571/12 268/4
f 443/1 1024/14 567/12 444/4

usemtl minecraft_block-grass_block_top

f 1/1 2/2 3/3 4/4
f 2/1 5/5 6/6 3/4
f 4/7 3/8 7/3 8/4
f 9/9 10/10 11/6 12/4
f 13/7 14/11 15/12 16/4
f 16/9 15/13 17/12 18/4
f 19/1 20/14 21/12 22/4
f 23/9 9/15 12/3 24/4
f 25/1 31/14 29/12 26/4
f 32/16 33/17 9/3 23/4
f 34/1 28/18 27/19 32/4
f 35/1 36/20 33/21 30/4
f 8/22 7/23 36/3 34/4
f 10/9 16/10 18/6 11/4
f 7/7 37/24 10/6 9/4
f 5/1 19/5 22/6 6/4
f 22/7 21/11 14/12 13/4
f 82/9 83/10 16/6 10/4
f 37/1 75/20 74/21 82/4
f 80/1 13/42 83/43 81/4
f 3/7 6/24 37/6 7/4
f 1546/108 932/109 75/21 37/4
f 436/73 1547/110 13/43 80/4
f 1548/1 1550/111 1547/112 1549/4
f 438/22 1554/113 1550/43 439/4
f 933/1 934/14 1183/12 1298/4
f 1557/1 1184/18 934/19 1546/4
f 1390/1 1559/14 1554/12 939/4
f 1560/1 960/34 1561/35 1557/4
f 442/36 1562/76 1559/43 443/4
f 1563/1 1303/20 961/21 1560/4
f 1564/1 1565/18 1566/19 1563/4
f 1567/1 1569/34 1562/35 1568/4
f 6/22 22/114 1569/6 1564/4
f 1023/1 1389/42 938/43 935/4

usemtl minecraft_block-lava_still

f 1116/75 1117/1 1118/90 1119/95
f 1528/75 1529/1 1530/90 1531/95
f 1636/1 1637/75 1638/95 1639/90
f 1640/1 1641/75 1642/48 1643/4
f 1644/1 1645/44 1646/45 1640/4
f 1647/1 1649/44 1641/45 1648/4
f 1650/1 1651/75 1649/48 1644/4
f 1652/1 1653/42 1654/43 1650/4
f 1655/1 1657/14 1651/12 1656/4
f 1658/1 1659/75 1657/48 1652/4
f 1694/1 1695/75 1696/95 1697/90
f 1828/107 1829/106 1830/103 1831/102
f 1832/107 1833/106 1834/103 1835/102
f 1836/107 1837/106 1838/103 1839/102
f 1840/107 1841/106 1842/103 1843/102
f 1844/107 1845/106 1846/103 1847/102
f 1848/107 1849/106 1850/103 1851/102
f 1852/107 1853/106 1854/103 1855/102
f 1856/107 1857/106 1858/103 1859/102
f 1860/107 1861/106 1862/103 1863/102

usemtl minecraft_block-pointed_dripstone_down_tip

f 84/1 85/14 86/12 87/4
f 88/1 89/14 90/12 91/4
f 92/1 93/14 94/12 95/4
f 96/1 97/14 98/12 99/4
f 100/1 101/14 102/12 103/4
f 104/1 105/14 106/12 107/4
f 108/1 109/14 110/12 111/4
f 112/1 113/14 114/12 115/4
f 116/1 117/14 118/12 119/4
f 120/1 121/14 122/12 123/4
f 124/1 125/14 126/12 127/4
f 128/1 129/14 130/12 131/4
f 132/1 133/14 134/12 135/4
f 136/1 137/14 138/12 139/4
f 140/1 141/14 142/12 143/4
f 144/1 145/14 146/12 147/4
f 148/1 149/14 150/12 151/4
f 152/1 153/14 154/12 155/4
f 156/1 157/14 158/12 159/4
f 160/1 161/14 162/12 163/4
f 164/1 165/14 166/12 167/4
f 168/1 169/14 170/12 171/4
f 172/1 173/14 174/12 175/4
f 176/1 177/14 178/12 179/4
f 180/1 181/14 182/12 183/4
f 184/1 185/14 186/12 187/4
f 188/1 189/14 190/12 191/4
f 192/1 193/14 194/12 195/4
f 196/1 197/14 198/12 199/4
f 200/1 201/14 202/12 203/4
f 204/1 205/14 206/12 207/4
f 208/1 209/14 210/12 211/4
f 212/1 213/14 214/12 215/4
f 216/1 217/14 218/12 219/4
f 220/1 221/14 222/12 223/4
f 224/1 225/14 226/12 227/4
f 228/1 229/14 230/12 231/4
f 232/1 233/14 234/12 235/4
f 236/1 237/14 238/12 239/4
f 240/1 241/14 242/12 243/4
f 244/1 245/14 246/12 247/4
f 248/1 249/14 250/12 251/4
f 252/1 253/14 254/12 255/4
f 256/1 257/14 258/12 259/4

usemtl minecraft_block-cauldron_inner

f 1807/73 895/98 1624/58 1808/4
f 446/107 447/106 1237/103 1238/102
f 1149/99 896/94 1810/12 1150/57
f 1238/49 1237/54 1808/106 1810/107
f 794/102 1811/103 447/57 446/58
f 1050/73 1149/98 1150/58 1051/4
f 359/107 458/106 1055/103 356/102
f 489/99 350/94 349/12 490/57
f 356/49 1055/54 1051/106 349/107
f 797/102 829/103 458/57 359/58
f 1812/73 489/98 490/58 1813/4
f 465/107 466/106 1253/103 1254/102
f 1660/99 906/94 1477/12 1661/57
f 1254/49 1253/54 1813/106 1477/107
f 806/102 831/103 466/57 465/58
f 1089/73 1660/98 1661/58 1090/4
f 473/107 474/106 1094/103 1123/102
f 1304/99 912/94 1120/12 1305/57
f 1123/49 1094/54 1090/106 1120/107
f 812/102 833/103 474/57 473/58
f 1353/73 1304/98 1305/58 1354/4
f 481/107 482/106 1261/103 1262/102
f 923/99 918/94 1814/12 1003/57
f 1262/49 1261/54 1354/106 1814/107
f 818/102 835/103 482/57 481/58
f 1462/107 1463/106 1628/103 1629/102
f 1629/49 1628/54 1811/106 794/107
f 1815/102 1816/103 1463/57 1462/58
f 367/107 1062/106 1060/103 364/102
f 364/49 1060/54 829/106 797/107
f 1817/102 1818/103 1062/57 367/58
f 1470/107 1471/106 1632/103 1483/102
f 1483/49 1632/54 831/106 806/107
f 1819/102 1820/103 1471/57 1470/58
f 1130/107 1101/106 1099/103 1128/102
f 1128/49 1099/54 833/106 812/107
f 1821/102 1822/103 1101/57 1130/58
f 1472/107 1364/106 1362/103 1633/102
f 1633/49 1362/54 835/106 818/107
f 1823/102 1824/103 1364/57 1472/58
f 707/107 708/106 626/103 627/102
f 627/49 626/54 1816/106 1815/107
f 1581/102 1825/103 708/57 707/58
f 375/107 719/106 638/103 372/102
f 372/49 638/54 1818/106 1817/107
f 1584/102 1616/103 719/57 375/58
f 726/107 727/106 645/103 646/102
f 646/49 645/54 1820/106 1819/107
f 1593/102 1618/103 727/57 726/58
f 734/107 735/106 653/103 654/102
f 654/49 653/54 1822/106 1821/107
f 1599/102 1620/103 735/57 734/58
f 742/107 743/106 661/103 662/102
f 662/49 661/54 1824/106 1823/107
f 1605/102 1622/103 743/57 742/58
f 1502/107 1503/106 1391/103 1392/102
f 1392/49 1391/54 1825/106 1581/107
f 1194/102 1826/103 1503/57 1502/58
f 383/107 1074/106 1070/103 380/102
f 380/49 1070/54 1616/106 1584/107
f 1197/102 1229/103 1074/57 383/58
f 1493/107 1508/106 1405/103 1406/102
f 1406/49 1405/54 1618/106 1593/107
f 1206/102 1231/103 1508/57 1493/58
f 1141/107 1113/106 1109/103 1138/102
f 1138/49 1109/54 1620/106 1599/107
f 1212/102 1233/103 1113/57 1141/58
f 1509/107 1374/106 1372/103 1411/102
f 1411/49 1372/54 1622/106 1605/107
f 1218/102 1235/103 1374/57 1509/58
f 750/107 751/106 393/103 394/102
f 394/49 393/54 1826/106 1194/107
f 896/102 1807/103 751/57 750/58
f 391/107 762/106 405/103 388/102
f 388/49 405/54 1229/106 1197/107
f 350/102 1050/103 762/57 391/58
f 769/107 770/106 412/103 413/102
f 413/49 412/54 1231/106 1206/107
f 906/102 1812/103 770/57 769/58
f 777/107 778/106 420/103 421/102
f 421/49 420/54 1233/106 1212/107
f 912/102 1089/103 778/57 777/58
f 785/107 786/106 428/103 429/102
f 429/49 428/54 1235/106 1218/107
f 918/102 1353/103 786/57 785/58
f 1873/107 1874/106 1875/103 1876/102
f 1877/107 1878/106 1879/103 1880/102
f 1881/107 1882/106 1883/103 1884/102
f 1885/107 1886/106 1887/103 1888/102
f 1889/107 1890/106 1891/103 1892/102
f 1893/107 1894/106 1895/103 1896/102
f 1897/107 1898/106 1899/103 1900/102
f 1901/107 1902/106 1903/103 1904/102
f 1905/107 1906/106 1907/103 1908/102
f 1909/107 1910/106 1911/103 1912/102
f 1913/107 1914/106 1915/103 1916/102
f 1917/107 1918/106 1919/103 1920/102
f 1921/107 1922/106 1923/103 1924/102
f 1925/107 1926/106 1927/103 1928/102
f 1929/107 1930/106 1931/103 1932/102
f 1933/107 1934/106 1935/103 1936/102
f 1937/107 1938/106 1939/103 1940/102
f 1941/107 1942/106 1943/103 1944/102
f 1945/107 1946/106 1947/103 1948/102
f 1949/107 1950/106 1951/103 1952/102
f 1953/107 1954/106 1955/103 1956/102
f 1957/107 1958/106 1959/103 1960/102
f 1961/107 1962/106 1963/103 1964/102
f 1965/107 1966/106 1967/103 1968/102
f 1969/107 1970/106 1971/103 1972/102

usemtl minecraft_block-water_flow

f 38/25 39/26 40/27 41/28
f 39/14 42/12 43/4 40/1
f 42/25 44/26 45/27 43/28
f 44/1 46/14 47/12 45/4
f 46/28 48/25 49/26 47/27
f 48/28 50/25 51/26 49/27
f 50/28 52/25 53/26 51/27
f 54/1 55/14 56/29 57/30
f 58/14 59/1 60/31 61/32
f 62/14 63/1 64/33 65/32
f 260/4 261/1 262/14 263/12
f 271/12 272/4 273/1 274/14
f 276/4 279/1 280/14 277/12
f 281/12 282/4 283/1 284/14
f 285/12 286/4 287/1 288/14
f 289/1 290/14 291/12 292/4
f 293/12 294/4 282/1 281/14
f 295/26 296/27 285/28 297/25
f 296/26 298/27 286/28 285/25
f 299/25 300/26 301/27 302/28
f 300/25 303/26 304/27 301/28
f 305/1 306/14 290/12 289/4
f 307/28 308/25 309/26 310/27
f 308/28 311/25 312/26 309/27
f 311/28 313/25 314/26 312/27
f 313/28 315/25 293/26 314/27
f 315/4 316/1 294/14 293/12
f 317/14 318/12 295/4 319/1
f 318/14 320/12 296/4 295/1
f 320/14 321/12 298/4 296/1
f 321/25 322/26 299/27 298/28
f 322/25 323/26 300/27 299/28
f 323/25 324/26 303/27 300/28
f 324/1 325/14 307/12 303/4
f 325/28 326/25 308/26 307/27
f 326/28 327/25 311/26 308/27
f 327/28 328/25 313/26 311/27
f 328/28 329/25 315/26 313/27
f 329/28 330/25 316/26 315/27
f 331/25 332/26 320/27 318/28
f 332/25 333/26 321/27 320/28
f 333/25 334/26 322/27 321/28
f 334/25 335/26 323/27 322/28
f 335/25 336/26 324/27 323/28
f 336/1 337/14 325/12 324/4
f 337/28 338/25 326/26 325/27
f 338/28 339/25 327/26 326/27
f 339/28 340/25 328/26 327/27
f 340/28 341/25 329/26 328/27
f 341/28 342/25 330/26 329/27
f 343/25 41/26 333/27 332/28
f 41/25 40/26 334/27 333/28
f 43/25 45/26 336/27 335/28
f 45/1 47/14 337/12 336/4
f 47/28 49/25 338/26 337/27
f 49/28 51/25 339/26 338/27
f 51/28 53/25 340/26 339/27
f 53/28 344/25 341/26 340/27
f 602/1 603/14 604/78 605/79
f 606/1 607/14 608/32 609/33
f 610/1 611/14 612/29 613/30
f 614/14 615/1 616/30 617/29
f 618/14 614/1 617/80 619/32
f 620/14 618/1 619/80 621/81
f 622/14 620/1 621/30 623/81
f 624/14 622/1 623/33 625/32
f 669/1 670/14 671/32 672/33
f 673/1 674/14 675/82 676/31
f 677/1 678/14 679/29 680/30
f 681/1 682/14 683/83 684/33
f 859/1 860/14 861/32 862/33
f 863/1 864/14 865/29 866/30
f 928/14 929/1 930/30 931/87
f 956/14 957/1 958/33 959/32
f 964/14 965/1 966/30 967/29
f 968/14 969/1 970/79 971/87
f 998/14 997/1 999/90 1000/29
f 1045/1 1046/14 1047/29 1048/33
f 1145/14 1146/1 1147/33 1148/29
f 1185/1 1186/14 1187/29 1188/33
f 1283/1 1286/14 1287/96 1284/90
f 1286/1 1288/14 1289/29 1287/97
f 1294/14 1295/1 1296/33 1297/29
f 1518/14 1519/1 1520/97 1521/83
f 1522/14 1518/1 1521/33 1523/96
f 1524/1 1525/14 1526/32 1527/33
f 1698/1 1699/14 1700/87 1701/115
f 1702/1 1703/14 1704/32 1705/33
f 1706/1 1707/14 1708/29 1709/30
f 1864/14 1865/1 1866/30 1867/29
f 1868/14 1864/1 1867/31 1869/32
f 1996/14 1997/1 1998/33 1999/29
f 2000/14 2001/1 2002/30 2003/29
